<svg xmlns="http://www.w3.org/2000/svg" viewBox="0 0 1500 500" width="100%">
  <g>
    <defs/>
    <path fill="rgba(165.75, 214.83750000000003, 116.66249999999998, 1.0)" stroke-width="5" stroke="rgba(0.0, 0.0, 0.0, 1.0)" d="M1105.5 391.4 1105.6 389.0 1105.7 386.4 1105.8 383.7 1106.0 380.9 1106.2 378.0 1106.3 375.0 1106.6 371.9 1106.8 368.8 1107.1 365.5 1107.4 362.2 1107.7 358.8 1108.1 355.3 1108.5 351.8 1108.9 348.3 1109.4 344.7 1109.9 341.1 1110.5 337.5 1111.1 333.9 1111.6 330.6 1112.1 327.1 1112.7 323.4 1113.3 319.6 1114.0 315.7 1114.7 311.7 1115.4 307.6 1116.2 303.5 1116.9 299.4 1117.7 295.2 1118.4 291.1 1119.1 287.1 1119.8 283.2 1120.5 279.5 1121.2 275.8 1121.8 272.4 1122.4 269.1 1122.9 266.1 1123.4 263.4 1123.9 260.9 1120.5 261.0 1117.0 261.1 1113.6 261.2 1110.1 261.3 1106.6 261.4 1103.2 261.4 1099.8 261.5 1096.4 261.5 1093.0 261.6 1089.8 261.6 1086.7 261.6H1083.61L1080.7 261.6L1081.3 258.1L1082.0 254.6L1082.5 251.2L1083.1 247.7L1083.8 247.7L1087.0 247.8L1090.3 247.9L1093.5 247.9L1096.8 248.0L1100.2 248.1L1103.5 248.2L1106.8 248.2L1110.0 248.3L1113.2 248.4L1116.4 248.5L1119.5 248.6L1122.5 248.7L1125.4 248.8L1125.9 245.8L1126.4 242.7L1126.8 239.5L1127.3 236.1L1127.8 232.8L1128.2 229.3L1128.7 225.8L1129.1 222.3L1129.5 218.7L1129.8 215.2L1130.1 211.7L1130.4 208.1L1130.7 204.6L1131.0 201.2L1131.2 197.8L1131.4 194.4L1131.6 191.1L1131.8 187.8L1132.0 184.6L1132.3 181.5L1132.5 178.4L1132.7 175.5L1133.0 172.6L1133.2 169.8L1133.5 167.2L1133.7 164.7L1134.0 162.3L1131.0 162.8L1127.8 163.2L1124.5 163.6L1121.1 163.9L1117.6 164.2L1114.0 164.5L1110.5 164.7L1106.9 164.9L1103.3 165.0L1099.8 165.1L1096.3 165.1H1092.97L1089.7 165.1L1090.0 162.2L1090.2 159.2L1090.5 156.2L1090.8 153.2L1093.5 153.3L1096.4 153.4L1099.4 153.4L1102.5 153.4L1105.8 153.5H1109.07L1112.5 153.4L1115.9 153.4L1119.3 153.3L1122.8 153.2L1126.4 153.0L1129.8 152.9L1133.3 152.6L1136.8 152.4L1137.0 149.5L1137.2 146.6L1137.4 143.7L1137.6 140.8L1137.9 137.8L1138.2 134.8L1138.5 131.7L1138.8 128.4L1139.2 124.9L1139.6 121.3L1140.1 117.4L1140.7 113.2L1141.4 108.7L1142.0 105.1L1142.5 101.4L1143.2 97.6L1143.8 93.8L1144.5 90.0L1145.1 86.2L1145.8 82.4L1146.5 78.7L1147.1 75.0L1147.8 71.5L1148.4 68.0L1149.1 64.6L1149.7 61.4L1150.3 58.4L1150.9 55.5L1147.4 55.8L1144.0 56.0L1140.5 56.1L1137.2 56.2L1133.9 56.3H1130.61L1127.4 56.2L1124.2 56.2L1121.0 56.0L1117.9 55.9L1114.8 55.7L1111.7 55.4L1108.6 55.2L1105.6 54.9L1102.6 54.6L1099.6 54.3L1096.6 53.9L1093.6 53.6L1090.6 53.3L1087.6 52.9L1084.6 52.6L1081.6 52.3L1078.6 52.0L1075.6 51.7L1072.5 51.4L1069.4 51.2L1066.4 51.0L1063.3 50.8L1060.1 50.6L1057.0 50.4L1053.9 50.2L1053.3 53.4L1052.7 56.5L1052.1 59.7L1051.5 62.9L1050.9 66.1L1050.2 69.3L1049.6 72.6L1048.9 75.8L1048.3 79.1L1047.6 82.4L1046.9 85.7L1046.3 89.0L1045.6 92.3L1044.9 95.7L1044.3 99.0L1043.6 102.4L1043.0 105.7L1042.3 109.1L1041.7 112.4L1041.1 115.8L1040.5 119.2L1039.9 122.6L1039.3 125.9L1038.7 129.3L1038.2 132.6L1037.7 136.0L1037.2 139.4L1036.8 142.7L1036.3 146.0L1035.9 149.4L1035.6 152.7L1035.2 156.0L1034.9 159.3L1034.6 162.6L1034.3 165.9L1034.1 169.2L1033.9 172.5L1033.7 175.8L1033.5 179.1L1033.4 182.5L1033.2 185.9L1033.1 189.3L1032.9 192.7L1032.7 196.2L1032.5 199.8L1032.3 203.5L1032.0 207.3L1031.6 211.2L1031.2 215.2L1030.7 219.3L1030.2 223.5L1029.6 227.8L1029.0 232.1L1028.3 236.4L1027.5 240.7L1026.7 245.1L1025.8 249.4L1024.9 253.8L1024.0 258.2L1023.0 262.6L1021.9 266.9L1020.9 271.3L1019.8 275.6L1018.7 280.0L1017.6 284.3L1016.5 288.6L1015.4 292.8L1014.3 297.1L1013.2 301.2L1012.2 305.4L1011.1 309.5L1010.0 313.5L1009.0 317.5L1008.0 321.5L1007.0 325.4L1006.0 329.2L1005.0 333.0L1004.1 336.7L1003.3 340.4L1002.4 344.0L1001.6 347.5L1000.8 351.0L1000.1 354.4L999.4 357.8L998.7 361.1L998.1 364.4L997.5 367.6L996.9 370.7L996.4 373.8L995.9 376.9L995.5 379.8L995.0 382.8L994.6 385.7L994.3 388.6L993.9 391.4L993.6 394.2L993.3 397.0L993.0 399.7L992.8 402.4L992.5 405.1L996.3 404.5L1000.2 403.9L1004.0 403.2L1007.8 402.5L1011.6 401.9L1015.4 401.2L1019.2 400.6L1023.0 400.0L1026.8 399.4L1030.6 398.8L1034.3 398.2L1038.0 397.7L1041.8 397.2L1045.4 396.7L1049.1 396.2L1052.7 395.8L1056.3 395.4L1059.9 395.0L1063.5 394.7L1067.1 394.3L1070.6 394.0L1074.1 393.7L1077.7 393.4L1081.2 393.1L1084.7 392.8L1088.2 392.5L1091.7 392.2L1095.2 392.0L1098.6 391.8L1102.1 391.6L1105.5 391.4Z"/>
  </g>
  <g>
    <defs/>
    <path fill="rgba(165.75, 214.83750000000003, 116.66249999999998, 1.0)" stroke-width="0" stroke="rgba(0.0, 0.0, 0.0, 0.0)" d="M1105.5 391.4 1105.6 389.0 1105.7 386.4 1105.8 383.7 1106.0 380.9 1106.2 378.0 1106.3 375.0 1106.6 371.9 1106.8 368.8 1107.1 365.5 1107.4 362.2 1107.7 358.8 1108.1 355.3 1108.5 351.8 1108.9 348.3 1109.4 344.7 1109.9 341.1 1110.5 337.5 1111.1 333.9 1111.6 330.6 1112.1 327.1 1112.7 323.4 1113.3 319.6 1114.0 315.7 1114.7 311.7 1115.4 307.6 1116.2 303.5 1116.9 299.4 1117.7 295.2 1118.4 291.1 1119.1 287.1 1119.8 283.2 1120.5 279.5 1121.2 275.8 1121.8 272.4 1122.4 269.1 1122.9 266.1 1123.4 263.4 1123.9 260.9 1120.5 261.0 1117.0 261.1 1113.6 261.2 1110.1 261.3 1106.6 261.4 1103.2 261.4 1099.8 261.5 1096.4 261.5 1093.0 261.6 1089.8 261.6 1086.7 261.6H1083.61L1080.7 261.6L1081.3 258.1L1082.0 254.6L1082.5 251.2L1083.1 247.7L1083.8 247.7L1087.0 247.8L1090.3 247.9L1093.5 247.9L1096.8 248.0L1100.2 248.1L1103.5 248.2L1106.8 248.2L1110.0 248.3L1113.2 248.4L1116.4 248.5L1119.5 248.6L1122.5 248.7L1125.4 248.8L1125.9 245.8L1126.4 242.7L1126.8 239.5L1127.3 236.1L1127.8 232.8L1128.2 229.3L1128.7 225.8L1129.1 222.3L1129.5 218.7L1129.8 215.2L1130.1 211.7L1130.4 208.1L1130.7 204.6L1131.0 201.2L1131.2 197.8L1131.4 194.4L1131.6 191.1L1131.8 187.8L1132.0 184.6L1132.3 181.5L1132.5 178.4L1132.7 175.5L1133.0 172.6L1133.2 169.8L1133.5 167.2L1133.7 164.7L1134.0 162.3L1131.0 162.8L1127.8 163.2L1124.5 163.6L1121.1 163.9L1117.6 164.2L1114.0 164.5L1110.5 164.7L1106.9 164.9L1103.3 165.0L1099.8 165.1L1096.3 165.1H1092.97L1089.7 165.1L1090.0 162.2L1090.2 159.2L1090.5 156.2L1090.8 153.2L1093.5 153.3L1096.4 153.4L1099.4 153.4L1102.5 153.4L1105.8 153.5H1109.07L1112.5 153.4L1115.9 153.4L1119.3 153.3L1122.8 153.2L1126.4 153.0L1129.8 152.9L1133.3 152.6L1136.8 152.4L1137.0 149.5L1137.2 146.6L1137.4 143.7L1137.6 140.8L1137.9 137.8L1138.2 134.8L1138.5 131.7L1138.8 128.4L1139.2 124.9L1139.6 121.3L1140.1 117.4L1140.7 113.2L1141.4 108.7L1142.0 105.1L1142.5 101.4L1143.2 97.6L1143.8 93.8L1144.5 90.0L1145.1 86.2L1145.8 82.4L1146.5 78.7L1147.1 75.0L1147.8 71.5L1148.4 68.0L1149.1 64.6L1149.7 61.4L1150.3 58.4L1150.9 55.5L1147.4 55.8L1144.0 56.0L1140.5 56.1L1137.2 56.2L1133.9 56.3H1130.61L1127.4 56.2L1124.2 56.2L1121.0 56.0L1117.9 55.9L1114.8 55.7L1111.7 55.4L1108.6 55.2L1105.6 54.9L1102.6 54.6L1099.6 54.3L1096.6 53.9L1093.6 53.6L1090.6 53.3L1087.6 52.9L1084.6 52.6L1081.6 52.3L1078.6 52.0L1075.6 51.7L1072.5 51.4L1069.4 51.2L1066.4 51.0L1063.3 50.8L1060.1 50.6L1057.0 50.4L1053.9 50.2L1053.3 53.4L1052.7 56.5L1052.1 59.7L1051.5 62.9L1050.9 66.1L1050.2 69.3L1049.6 72.6L1048.9 75.8L1048.3 79.1L1047.6 82.4L1046.9 85.7L1046.3 89.0L1045.6 92.3L1044.9 95.7L1044.3 99.0L1043.6 102.4L1043.0 105.7L1042.3 109.1L1041.7 112.4L1041.1 115.8L1040.5 119.2L1039.9 122.6L1039.3 125.9L1038.7 129.3L1038.2 132.6L1037.7 136.0L1037.2 139.4L1036.8 142.7L1036.3 146.0L1035.9 149.4L1035.6 152.7L1035.2 156.0L1034.9 159.3L1034.6 162.6L1034.3 165.9L1034.1 169.2L1033.9 172.5L1033.7 175.8L1033.5 179.1L1033.4 182.5L1033.2 185.9L1033.1 189.3L1032.9 192.7L1032.7 196.2L1032.5 199.8L1032.3 203.5L1032.0 207.3L1031.6 211.2L1031.2 215.2L1030.7 219.3L1030.2 223.5L1029.6 227.8L1029.0 232.1L1028.3 236.4L1027.5 240.7L1026.7 245.1L1025.8 249.4L1024.9 253.8L1024.0 258.2L1023.0 262.6L1021.9 266.9L1020.9 271.3L1019.8 275.6L1018.7 280.0L1017.6 284.3L1016.5 288.6L1015.4 292.8L1014.3 297.1L1013.2 301.2L1012.2 305.4L1011.1 309.5L1010.0 313.5L1009.0 317.5L1008.0 321.5L1007.0 325.4L1006.0 329.2L1005.0 333.0L1004.1 336.7L1003.3 340.4L1002.4 344.0L1001.6 347.5L1000.8 351.0L1000.1 354.4L999.4 357.8L998.7 361.1L998.1 364.4L997.5 367.6L996.9 370.7L996.4 373.8L995.9 376.9L995.5 379.8L995.0 382.8L994.6 385.7L994.3 388.6L993.9 391.4L993.6 394.2L993.3 397.0L993.0 399.7L992.8 402.4L992.5 405.1L996.3 404.5L1000.2 403.9L1004.0 403.2L1007.8 402.5L1011.6 401.9L1015.4 401.2L1019.2 400.6L1023.0 400.0L1026.8 399.4L1030.6 398.8L1034.3 398.2L1038.0 397.7L1041.8 397.2L1045.4 396.7L1049.1 396.2L1052.7 395.8L1056.3 395.4L1059.9 395.0L1063.5 394.7L1067.1 394.3L1070.6 394.0L1074.1 393.7L1077.7 393.4L1081.2 393.1L1084.7 392.8L1088.2 392.5L1091.7 392.2L1095.2 392.0L1098.6 391.8L1102.1 391.6L1105.5 391.4Z"/>
  </g>
  <g>
    <defs/>
    <path fill="rgba(128.934375, 214.83750000000003, 116.66249999999998, 1.0)" stroke-width="5" stroke="rgba(0.0, 0.0, 0.0, 1.0)" d="M981.2 407.0 981.3 404.4 981.3 401.8 981.4 399.1 981.5 396.2 981.6 393.4 981.8 390.4 982.0 387.3 982.2 384.2 982.5 380.9 982.9 377.6 983.3 374.1 983.7 370.6 984.3 366.9 984.9 363.1 985.5 359.2 986.2 355.2 987.0 351.1 987.8 346.9 988.7 342.6 992.7 342.0 997.0 341.4 1001.5 340.6 1004.8 340.1 1008.0 339.5 1011.1 338.8 1014.1 338.2 1017.0 337.5 1019.8 336.8 1022.5 336.0 1025.2 335.2 1027.7 334.3 1030.1 333.4 1032.5 332.4 1034.8 331.4 1037.0 330.2 1039.1 329.1 1041.1 327.8 1043.1 326.5 1045.0 325.1 1046.9 323.5 1048.7 321.9 1050.5 320.2 1052.2 318.4 1053.8 316.5 1055.4 314.5 1057.0 312.4 1058.5 310.1 1060.0 307.7 1061.5 305.2 1062.9 302.6 1064.3 299.8 1065.7 296.9 1067.1 293.9 1068.4 290.7 1069.7 287.4 1071.0 283.9 1072.2 280.3 1073.5 276.6 1074.7 272.7 1075.9 268.7 1077.0 264.6 1078.1 260.4 1079.2 256.0 1080.2 251.5 1081.2 246.9 1082.1 242.2 1082.9 237.4 1083.7 232.5 1084.4 227.5 1085.0 222.5 1085.6 217.4 1086.0 212.2 1086.4 206.9 1086.7 201.5 1087.0 196.1 1087.2 190.4 1087.4 184.6 1087.5 178.9 1087.7 173.4 1087.9 167.9 1088.1 162.6 1088.4 157.3 1088.6 152.1 1088.8 147.1 1089.1 142.1 1089.3 137.2 1089.5 132.5 1089.7 127.9 1089.9 123.4 1090.0 119.0 1090.0 114.8 1090.0 110.8 1090.0 106.9 1089.8 103.1 1089.6 99.5 1089.4 96.0 1089.0 92.7 1088.6 89.5 1088.1 86.5 1087.5 83.6 1086.8 80.9 1086.0 78.3 1085.2 75.8 1084.3 73.5 1083.3 71.3 1082.2 69.2 1081.0 67.3 1079.7 65.5 1078.4 63.8 1077.0 62.2 1075.4 60.7 1073.8 59.3 1072.1 58.1 1070.4 56.9 1068.5 55.8 1066.5 54.9 1064.5 54.0 1062.3 53.2 1060.1 52.5 1057.8 51.9 1055.4 51.4 1052.9 50.9 1050.3 50.5 1047.6 50.2 1044.9 49.9 1042.0 49.8 1039.1 49.6 1036.0 49.5 1032.9 49.4 1029.7 49.3 1026.6 49.2 1023.5 49.1 1020.3 49.0 1017.1 49.0 1013.9 49.0 1010.7 49.0 1007.4 49.0 1004.2 49.1 1000.9 49.2 997.6 49.3 994.2 49.4 990.9 49.6 987.5 49.8 984.0 50.1 983.4 53.4 982.6 56.7 981.9 60.1 981.1 63.4 980.3 66.9 979.5 70.3 978.7 73.7 977.9 77.2 977.0 80.7 976.1 84.2 975.3 87.8 974.4 91.3 973.5 94.9 972.6 98.5 971.7 102.1 970.8 105.7 970.0 109.4 969.1 113.0 968.2 116.6 967.3 120.3 966.5 123.9 965.6 127.6 964.8 131.2 964.0 134.8 963.3 138.5 962.5 142.1 961.8 145.7 961.1 149.3 960.4 152.9 959.8 156.5 959.2 160.1 958.6 163.6 958.1 167.1 957.6 170.7 957.1 174.2 956.7 177.7 956.3 181.2 956.0 184.7 955.6 188.2 955.3 191.8 955.0 195.3 954.6 198.9 954.3 202.6 954.0 206.3 953.6 210.1 953.2 213.9 952.7 217.9 952.2 222.0 951.6 226.1 951.0 230.5 950.3 234.9 949.6 239.3 948.8 243.7 948.0 248.2 947.1 252.6 946.2 257.1 945.3 261.6 944.3 266.0 943.3 270.5 942.3 274.9 941.2 279.4 940.2 283.8 939.1 288.1 938.0 292.5 937.0 296.8 935.9 301.0 934.8 305.2 933.8 309.4 932.8 313.5 931.8 317.6 930.8 321.6 929.8 325.6 928.9 329.4 928.0 333.3 927.1 337.1 926.2 340.8 925.4 344.4 924.7 348.0 923.9 351.5 923.2 355.0 922.5 358.4 921.9 361.7 921.3 364.9 920.8 368.2 920.2 371.3 919.7 374.4 919.3 377.4 918.9 380.4 918.5 383.4 918.1 386.3 917.8 389.1 917.5 391.9 917.2 394.7 917.0 397.4 916.7 400.1 916.5 402.7 916.3 405.4 916.1 408.0 916.0 410.6 915.8 413.2 919.0 413.1 922.3 413.1 925.5 412.9 928.8 412.8 932.1 412.6 935.5 412.4 938.8 412.2 942.2 411.9 945.7 411.6 949.1 411.3 952.6 410.9 956.1 410.6 959.6 410.1 963.2 409.7 966.7 409.2 970.3 408.7 974.0 408.1 977.6 407.6 981.2 407.0ZM1011.8 244.8 1012.5 241.4 1013.1 238.0 1013.7 234.6 1014.3 231.2 1014.8 227.9 1015.3 224.6 1015.7 221.3 1016.1 218.1 1016.5 214.9 1016.8 211.8 1017.1 208.7 1017.4 205.6 1017.6 202.5 1017.8 199.5 1018.0 196.5 1018.2 193.5 1018.4 190.5 1018.5 187.5 1018.7 184.5 1018.9 181.5 1019.0 178.5 1019.2 175.4 1019.4 172.4 1019.7 169.3 1019.9 166.1 1020.2 163.0 1020.5 159.8 1020.9 156.5 1021.2 153.2 1021.6 149.9 1022.1 146.5 1022.6 143.1 1023.1 139.6 1023.6 136.1 1024.2 132.6 1026.8 132.6 1027.9 132.6 1029.0 132.8 1030.0 133.1 1030.8 133.6 1031.5 134.3 1032.2 135.4 1032.7 136.7 1033.2 138.3 1033.5 140.3 1033.7 142.7 1033.8 145.5 1033.8 148.8 1033.8 152.5 1033.6 156.7 1033.5 161.4 1033.2 166.6 1033.0 172.4 1032.8 178.6 1032.5 185.5 1032.2 193.0 1031.9 199.1 1031.5 204.8 1031.0 210.1 1030.4 215.0 1029.8 219.4 1029.0 223.5 1028.2 227.1 1027.4 230.4 1026.5 233.3 1025.5 235.8 1024.4 237.9 1023.3 239.7 1022.1 241.2 1020.9 242.4 1019.5 243.3 1018.0 244.0 1016.4 244.5 1014.6 244.8 1011.8 244.8Z"/>
  </g>
  <g>
    <defs/>
    <path fill="rgba(128.934375, 214.83750000000003, 116.66249999999998, 1.0)" stroke-width="0" stroke="rgba(0.0, 0.0, 0.0, 0.0)" d="M981.2 407.0 981.3 404.4 981.3 401.8 981.4 399.1 981.5 396.2 981.6 393.4 981.8 390.4 982.0 387.3 982.2 384.2 982.5 380.9 982.9 377.6 983.3 374.1 983.7 370.6 984.3 366.9 984.9 363.1 985.5 359.2 986.2 355.2 987.0 351.1 987.8 346.9 988.7 342.6 992.7 342.0 997.0 341.4 1001.5 340.6 1004.8 340.1 1008.0 339.5 1011.1 338.8 1014.1 338.2 1017.0 337.5 1019.8 336.8 1022.5 336.0 1025.2 335.2 1027.7 334.3 1030.1 333.4 1032.5 332.4 1034.8 331.4 1037.0 330.2 1039.1 329.1 1041.1 327.8 1043.1 326.5 1045.0 325.1 1046.9 323.5 1048.7 321.9 1050.5 320.2 1052.2 318.4 1053.8 316.5 1055.4 314.5 1057.0 312.4 1058.5 310.1 1060.0 307.7 1061.5 305.2 1062.9 302.6 1064.3 299.8 1065.7 296.9 1067.1 293.9 1068.4 290.7 1069.7 287.4 1071.0 283.9 1072.2 280.3 1073.5 276.6 1074.7 272.7 1075.9 268.7 1077.0 264.6 1078.1 260.4 1079.2 256.0 1080.2 251.5 1081.2 246.9 1082.1 242.2 1082.9 237.4 1083.7 232.5 1084.4 227.5 1085.0 222.5 1085.6 217.4 1086.0 212.2 1086.4 206.9 1086.7 201.5 1087.0 196.1 1087.2 190.4 1087.4 184.6 1087.5 178.9 1087.7 173.4 1087.9 167.9 1088.1 162.6 1088.4 157.3 1088.6 152.1 1088.8 147.1 1089.1 142.1 1089.3 137.2 1089.5 132.5 1089.7 127.9 1089.9 123.4 1090.0 119.0 1090.0 114.8 1090.0 110.8 1090.0 106.9 1089.8 103.1 1089.6 99.5 1089.4 96.0 1089.0 92.7 1088.6 89.5 1088.1 86.5 1087.5 83.6 1086.8 80.9 1086.0 78.3 1085.2 75.8 1084.3 73.5 1083.3 71.3 1082.2 69.2 1081.0 67.3 1079.7 65.5 1078.4 63.8 1077.0 62.2 1075.4 60.7 1073.8 59.3 1072.1 58.1 1070.4 56.9 1068.5 55.8 1066.5 54.9 1064.5 54.0 1062.3 53.2 1060.1 52.5 1057.8 51.9 1055.4 51.4 1052.9 50.9 1050.3 50.5 1047.6 50.2 1044.9 49.9 1042.0 49.8 1039.1 49.6 1036.0 49.5 1032.9 49.4 1029.7 49.3 1026.6 49.2 1023.5 49.1 1020.3 49.0 1017.1 49.0 1013.9 49.0 1010.7 49.0 1007.4 49.0 1004.2 49.1 1000.9 49.2 997.6 49.3 994.2 49.4 990.9 49.6 987.5 49.8 984.0 50.1 983.4 53.4 982.6 56.7 981.9 60.1 981.1 63.4 980.3 66.9 979.5 70.3 978.7 73.7 977.9 77.2 977.0 80.7 976.1 84.2 975.3 87.8 974.4 91.3 973.5 94.9 972.6 98.5 971.7 102.1 970.8 105.7 970.0 109.4 969.1 113.0 968.2 116.6 967.3 120.3 966.5 123.9 965.6 127.6 964.8 131.2 964.0 134.8 963.3 138.5 962.5 142.1 961.8 145.7 961.1 149.3 960.4 152.9 959.8 156.5 959.2 160.1 958.6 163.6 958.1 167.1 957.6 170.7 957.1 174.2 956.7 177.7 956.3 181.2 956.0 184.7 955.6 188.2 955.3 191.8 955.0 195.3 954.6 198.9 954.3 202.6 954.0 206.3 953.6 210.1 953.2 213.9 952.7 217.9 952.2 222.0 951.6 226.1 951.0 230.5 950.3 234.9 949.6 239.3 948.8 243.7 948.0 248.2 947.1 252.6 946.2 257.1 945.3 261.6 944.3 266.0 943.3 270.5 942.3 274.9 941.2 279.4 940.2 283.8 939.1 288.1 938.0 292.5 937.0 296.8 935.9 301.0 934.8 305.2 933.8 309.4 932.8 313.5 931.8 317.6 930.8 321.6 929.8 325.6 928.9 329.4 928.0 333.3 927.1 337.1 926.2 340.8 925.4 344.4 924.7 348.0 923.9 351.5 923.2 355.0 922.5 358.4 921.9 361.7 921.3 364.9 920.8 368.2 920.2 371.3 919.7 374.4 919.3 377.4 918.9 380.4 918.5 383.4 918.1 386.3 917.8 389.1 917.5 391.9 917.2 394.7 917.0 397.4 916.7 400.1 916.5 402.7 916.3 405.4 916.1 408.0 916.0 410.6 915.8 413.2 919.0 413.1 922.3 413.1 925.5 412.9 928.8 412.8 932.1 412.6 935.5 412.4 938.8 412.2 942.2 411.9 945.7 411.6 949.1 411.3 952.6 410.9 956.1 410.6 959.6 410.1 963.2 409.7 966.7 409.2 970.3 408.7 974.0 408.1 977.6 407.6 981.2 407.0ZM1011.8 244.8 1012.5 241.4 1013.1 238.0 1013.7 234.6 1014.3 231.2 1014.8 227.9 1015.3 224.6 1015.7 221.3 1016.1 218.1 1016.5 214.9 1016.8 211.8 1017.1 208.7 1017.4 205.6 1017.6 202.5 1017.8 199.5 1018.0 196.5 1018.2 193.5 1018.4 190.5 1018.5 187.5 1018.7 184.5 1018.9 181.5 1019.0 178.5 1019.2 175.4 1019.4 172.4 1019.7 169.3 1019.9 166.1 1020.2 163.0 1020.5 159.8 1020.9 156.5 1021.2 153.2 1021.6 149.9 1022.1 146.5 1022.6 143.1 1023.1 139.6 1023.6 136.1 1024.2 132.6 1026.8 132.6 1027.9 132.6 1029.0 132.8 1030.0 133.1 1030.8 133.6 1031.5 134.3 1032.2 135.4 1032.7 136.7 1033.2 138.3 1033.5 140.3 1033.7 142.7 1033.8 145.5 1033.8 148.8 1033.8 152.5 1033.6 156.7 1033.5 161.4 1033.2 166.6 1033.0 172.4 1032.8 178.6 1032.5 185.5 1032.2 193.0 1031.9 199.1 1031.5 204.8 1031.0 210.1 1030.4 215.0 1029.8 219.4 1029.0 223.5 1028.2 227.1 1027.4 230.4 1026.5 233.3 1025.5 235.8 1024.4 237.9 1023.3 239.7 1022.1 241.2 1020.9 242.4 1019.5 243.3 1018.0 244.0 1016.4 244.5 1014.6 244.8 1011.8 244.8Z"/>
  </g>
  <g>
    <defs/>
    <path fill="rgba(116.66249999999998, 214.83750000000003, 141.20624999999998, 1.0)" stroke-width="5" stroke="rgba(0.0, 0.0, 0.0, 1.0)" d="M935.5 56.2 935.1 57.9 934.7 59.6 934.2 61.6 933.6 63.8 933.0 66.2 932.3 68.7 931.6 71.4 930.8 74.2 929.9 77.3 929.0 80.4 928.1 83.8 927.1 87.2 926.0 90.9 925.0 94.6 923.9 98.5 922.7 102.4 921.5 106.5 920.3 110.7 919.1 114.9 917.9 119.3 916.6 123.7 915.4 128.1 914.2 132.6 913.0 137.1 911.8 141.6 910.7 146.1 909.6 150.6 908.6 155.1 907.6 159.6 906.6 164.0 905.8 168.4 904.9 172.7 904.2 177.0 903.5 181.2 902.8 185.4 902.2 189.5 901.7 193.6 901.1 197.6 900.6 201.6 900.2 205.6 899.9 208.1 899.6 210.7 899.3 213.5 898.9 216.4 898.5 219.5 898.1 222.7 897.7 226.0 897.2 229.4 896.7 232.9 896.2 236.4 895.6 239.9 895.0 243.5 894.3 247.1 893.7 250.7 893.0 254.3 892.3 257.8 889.5 257.9 889.9 254.4 890.3 250.9 890.6 247.4 891.0 243.8 891.3 240.3 891.5 236.8 891.8 233.3 891.9 229.9 892.1 226.5 892.2 223.3 892.3 220.1 892.4 217.1 892.4 214.2 892.4 211.4 892.5 208.7 892.5 206.2 892.6 202.3 892.7 198.4 892.9 194.4 893.1 190.4 893.4 186.4 893.7 182.2 894.0 178.1 894.5 173.9 895.0 169.6 895.6 165.3 896.2 161.0 896.9 156.6 897.7 152.2 898.5 147.8 899.4 143.3 900.2 138.9 901.2 134.4 902.2 130.0 903.2 125.7 904.2 121.3 905.2 117.1 906.2 112.9 907.2 108.8 908.2 104.7 909.2 100.8 910.2 97.0 911.2 93.3 912.1 89.7 913.0 86.2 913.8 82.9 914.6 79.8 915.4 76.8 916.1 73.9 916.8 71.2 917.5 68.7 918.1 66.4 918.6 64.2 919.2 62.2 919.6 60.4 920.1 58.8 916.4 59.4 912.7 60.0 909.0 60.6 905.3 61.2 901.6 61.8 898.0 62.4 894.3 62.9 890.7 63.4 887.1 64.0 883.5 64.4 879.9 64.9 876.4 65.3 872.8 65.7 869.3 66.1 865.9 66.5 862.4 66.8 859.0 67.1 855.6 67.3 852.2 67.6 852.0 69.7 851.7 71.9 851.5 74.3 851.2 76.8 850.9 79.5 850.6 82.3 850.2 85.3 849.8 88.4 849.4 91.6 849.0 95.0 848.6 98.4 848.2 102.0 847.7 105.7 847.3 109.5 846.8 113.3 846.4 117.2 845.9 121.2 845.5 125.2 845.1 129.3 844.7 133.4 844.3 137.6 844.0 141.7 843.7 145.9 843.4 150.1 843.2 154.2 843.0 158.3 842.9 162.4 842.8 166.5 842.8 170.5 842.9 174.5 843.0 178.4 843.1 182.3 843.3 186.1 843.5 189.9 843.8 193.7 844.1 197.4 844.4 201.1 844.7 204.7 845.0 208.3 845.4 211.9 845.7 215.6 846.0 219.2 846.2 222.8 846.4 226.4 846.6 230.0 846.8 233.7 846.8 237.3 846.9 240.9 846.9 244.5 846.9 248.2 846.8 251.7 846.7 255.3 846.6 258.8 846.4 262.3 846.2 265.8 846.0 269.1 845.8 272.4 845.6 275.7 845.3 278.8 845.1 281.9 844.8 284.8 844.5 287.6 844.3 290.4 844.0 292.9 843.8 295.4 842.7 300.9 841.6 306.2 840.5 311.5 839.4 316.7 838.4 321.8 837.3 326.8 836.4 331.6 835.4 336.4 834.5 341.0 833.7 345.4 833.0 349.7 832.2 353.9 831.6 357.9 831.0 361.8 830.4 365.5 829.9 369.0 829.5 372.4 829.1 375.7 828.8 378.8 828.4 381.7 828.2 384.6 827.9 387.2 827.7 389.8 827.5 392.2 827.4 394.4 827.2 396.6 827.1 398.6 827.0 400.4 826.9 402.2 826.8 403.8 826.7 405.3 826.6 406.6 826.5 407.9 826.5 408.9 829.2 409.1 831.9 409.3 834.7 409.5 837.6 409.7 840.6 409.9 843.6 410.1 846.7 410.3 849.8 410.5 852.9 410.7 856.0 410.9 859.2 411.0 862.4 411.1 865.5 411.3 868.5 411.4 871.6 411.6 874.8 411.7 877.9 411.9 881.1 412.0 884.3 412.2 887.5 412.4 890.6 412.5 893.8 412.7 896.8 412.8 899.8 413.0 902.8 413.1 905.6 413.3V412.17L905.6 410.9L905.6 409.6L905.6 408.1L905.6 406.4L905.7 404.6L905.8 402.8L905.9 400.7L906.0 398.5L906.1 396.2L906.2 393.8L906.4 391.1L906.7 388.4L906.9 385.5L907.3 382.5L907.6 379.3L908.0 375.9L908.5 372.4L909.0 368.7L909.7 364.9L910.3 360.8L911.1 356.7L911.9 352.3L912.8 347.8L913.7 343.1L914.7 338.3L915.8 333.3L917.0 328.2L918.2 322.9L919.5 317.5L920.8 312.0L922.1 306.4L923.5 300.7L924.9 294.9L926.3 289.1L927.2 286.4L928.2 283.5L929.2 280.6L930.2 277.6L931.3 274.4L932.3 271.2L933.4 267.9L934.5 264.5L935.6 261.1L936.7 257.6L937.9 254.1L939.0 250.5L940.0 246.9L941.1 243.2L942.2 239.5L943.2 235.9L944.2 232.2L945.2 228.5L946.2 224.8L947.1 221.1L948.0 217.4L948.9 213.8L949.8 210.1L950.6 206.5L951.4 202.8L952.2 199.1L953.0 195.5L953.8 191.8L954.6 188.1L955.5 184.3L956.4 180.5L957.3 176.7L958.2 172.8L959.2 168.9L960.3 164.9L961.4 160.9L962.5 156.8L963.7 152.7L964.9 148.5L966.2 144.4L967.5 140.2L968.8 136.0L970.1 131.8L971.5 127.6L972.8 123.5L974.2 119.3L975.6 115.2L977.0 111.1L978.3 107.1L979.7 103.1L981.0 99.2L982.3 95.4L983.6 91.7L984.8 88.0L986.0 84.5L987.2 81.0L988.3 77.7L989.4 74.5L990.4 71.4L991.4 68.4L992.4 65.5L993.3 62.8L994.1 60.2L994.9 57.7L995.6 55.4L996.3 53.2L997.0 51.2L997.5 49.3L994.1 49.5L990.6 49.6L987.1 49.9L983.6 50.1L980.1 50.4L976.5 50.7L972.9 51.1L969.3 51.5L965.6 51.9L961.9 52.4L958.2 52.8L954.5 53.4L950.7 53.9L946.9 54.4L943.1 55.0L939.4 55.6L935.5 56.2Z"/>
  </g>
  <g>
    <defs/>
    <path fill="rgba(116.66249999999998, 214.83750000000003, 141.20624999999998, 1.0)" stroke-width="0" stroke="rgba(0.0, 0.0, 0.0, 0.0)" d="M935.5 56.2 935.1 57.9 934.7 59.6 934.2 61.6 933.6 63.8 933.0 66.2 932.3 68.7 931.6 71.4 930.8 74.2 929.9 77.3 929.0 80.4 928.1 83.8 927.1 87.2 926.0 90.9 925.0 94.6 923.9 98.5 922.7 102.4 921.5 106.5 920.3 110.7 919.1 114.9 917.9 119.3 916.6 123.7 915.4 128.1 914.2 132.6 913.0 137.1 911.8 141.6 910.7 146.1 909.6 150.6 908.6 155.1 907.6 159.6 906.6 164.0 905.8 168.4 904.9 172.7 904.2 177.0 903.5 181.2 902.8 185.4 902.2 189.5 901.7 193.6 901.1 197.6 900.6 201.6 900.2 205.6 899.9 208.1 899.6 210.7 899.3 213.5 898.9 216.4 898.5 219.5 898.1 222.7 897.7 226.0 897.2 229.4 896.7 232.9 896.2 236.4 895.6 239.9 895.0 243.5 894.3 247.1 893.7 250.7 893.0 254.3 892.3 257.8 889.5 257.9 889.9 254.4 890.3 250.9 890.6 247.4 891.0 243.8 891.3 240.3 891.5 236.8 891.8 233.3 891.9 229.9 892.1 226.5 892.2 223.3 892.3 220.1 892.4 217.1 892.4 214.2 892.4 211.4 892.5 208.7 892.5 206.2 892.6 202.3 892.7 198.4 892.9 194.4 893.1 190.4 893.4 186.4 893.7 182.2 894.0 178.1 894.5 173.9 895.0 169.6 895.6 165.3 896.2 161.0 896.9 156.6 897.7 152.2 898.5 147.8 899.4 143.3 900.2 138.9 901.2 134.4 902.2 130.0 903.2 125.7 904.2 121.3 905.2 117.1 906.2 112.9 907.2 108.8 908.2 104.7 909.2 100.8 910.2 97.0 911.2 93.3 912.1 89.7 913.0 86.2 913.8 82.9 914.6 79.8 915.4 76.8 916.1 73.9 916.8 71.2 917.5 68.7 918.1 66.4 918.6 64.2 919.2 62.2 919.6 60.4 920.1 58.8 916.4 59.4 912.7 60.0 909.0 60.6 905.3 61.2 901.6 61.8 898.0 62.4 894.3 62.9 890.7 63.4 887.1 64.0 883.5 64.4 879.9 64.9 876.4 65.3 872.8 65.7 869.3 66.1 865.9 66.5 862.4 66.8 859.0 67.1 855.6 67.3 852.2 67.6 852.0 69.7 851.7 71.9 851.5 74.3 851.2 76.8 850.9 79.5 850.6 82.3 850.2 85.3 849.8 88.4 849.4 91.6 849.0 95.0 848.6 98.4 848.2 102.0 847.7 105.7 847.3 109.5 846.8 113.3 846.4 117.2 845.9 121.2 845.5 125.2 845.1 129.3 844.7 133.4 844.3 137.6 844.0 141.7 843.7 145.9 843.4 150.1 843.2 154.2 843.0 158.3 842.9 162.4 842.8 166.5 842.8 170.5 842.9 174.5 843.0 178.4 843.1 182.3 843.3 186.1 843.5 189.9 843.8 193.7 844.1 197.4 844.4 201.1 844.7 204.7 845.0 208.3 845.4 211.9 845.7 215.6 846.0 219.2 846.2 222.8 846.4 226.4 846.6 230.0 846.8 233.7 846.8 237.3 846.9 240.9 846.9 244.5 846.9 248.2 846.8 251.7 846.7 255.3 846.6 258.8 846.4 262.3 846.2 265.8 846.0 269.1 845.8 272.4 845.6 275.7 845.3 278.8 845.1 281.9 844.8 284.8 844.5 287.6 844.3 290.4 844.0 292.9 843.8 295.4 842.7 300.9 841.6 306.2 840.5 311.5 839.4 316.7 838.4 321.8 837.3 326.8 836.4 331.6 835.4 336.4 834.5 341.0 833.7 345.4 833.0 349.7 832.2 353.9 831.6 357.9 831.0 361.8 830.4 365.5 829.9 369.0 829.5 372.4 829.1 375.7 828.8 378.8 828.4 381.7 828.2 384.6 827.9 387.2 827.7 389.8 827.5 392.2 827.4 394.4 827.2 396.6 827.1 398.6 827.0 400.4 826.9 402.2 826.8 403.8 826.7 405.3 826.6 406.6 826.5 407.9 826.5 408.9 829.2 409.1 831.9 409.3 834.7 409.5 837.6 409.7 840.6 409.9 843.6 410.1 846.7 410.3 849.8 410.5 852.9 410.7 856.0 410.9 859.2 411.0 862.4 411.1 865.5 411.3 868.5 411.4 871.6 411.6 874.8 411.7 877.9 411.9 881.1 412.0 884.3 412.2 887.5 412.4 890.6 412.5 893.8 412.7 896.8 412.8 899.8 413.0 902.8 413.1 905.6 413.3V412.17L905.6 410.9L905.6 409.6L905.6 408.1L905.6 406.4L905.7 404.6L905.8 402.8L905.9 400.7L906.0 398.5L906.1 396.2L906.2 393.8L906.4 391.1L906.7 388.4L906.9 385.5L907.3 382.5L907.6 379.3L908.0 375.9L908.5 372.4L909.0 368.7L909.7 364.9L910.3 360.8L911.1 356.7L911.9 352.3L912.8 347.8L913.7 343.1L914.7 338.3L915.8 333.3L917.0 328.2L918.2 322.9L919.5 317.5L920.8 312.0L922.1 306.4L923.5 300.7L924.9 294.9L926.3 289.1L927.2 286.4L928.2 283.5L929.2 280.6L930.2 277.6L931.3 274.4L932.3 271.2L933.4 267.9L934.5 264.5L935.6 261.1L936.7 257.6L937.9 254.1L939.0 250.5L940.0 246.9L941.1 243.2L942.2 239.5L943.2 235.9L944.2 232.2L945.2 228.5L946.2 224.8L947.1 221.1L948.0 217.4L948.9 213.8L949.8 210.1L950.6 206.5L951.4 202.8L952.2 199.1L953.0 195.5L953.8 191.8L954.6 188.1L955.5 184.3L956.4 180.5L957.3 176.7L958.2 172.8L959.2 168.9L960.3 164.9L961.4 160.9L962.5 156.8L963.7 152.7L964.9 148.5L966.2 144.4L967.5 140.2L968.8 136.0L970.1 131.8L971.5 127.6L972.8 123.5L974.2 119.3L975.6 115.2L977.0 111.1L978.3 107.1L979.7 103.1L981.0 99.2L982.3 95.4L983.6 91.7L984.8 88.0L986.0 84.5L987.2 81.0L988.3 77.7L989.4 74.5L990.4 71.4L991.4 68.4L992.4 65.5L993.3 62.8L994.1 60.2L994.9 57.7L995.6 55.4L996.3 53.2L997.0 51.2L997.5 49.3L994.1 49.5L990.6 49.6L987.1 49.9L983.6 50.1L980.1 50.4L976.5 50.7L972.9 51.1L969.3 51.5L965.6 51.9L961.9 52.4L958.2 52.8L954.5 53.4L950.7 53.9L946.9 54.4L943.1 55.0L939.4 55.6L935.5 56.2Z"/>
  </g>
  <g>
    <defs/>
    <path fill="rgba(116.66249999999998, 214.83750000000003, 178.02187500000002, 1.0)" stroke-width="5" stroke="rgba(0.0, 0.0, 0.0, 1.0)" d="M778.4 73.1 778.1 75.7 777.7 78.5 777.4 81.5 776.9 84.5 776.5 87.7 776.0 91.0 775.5 94.4 775.0 97.9 774.5 101.4 774.0 104.9 773.5 108.4 773.0 112.0 772.6 115.6 772.1 119.1 771.6 122.6 771.2 126.0 770.9 129.3 770.6 132.6 770.2 136.0 769.9 139.4 769.6 142.8 769.3 146.2 769.0 149.6 768.8 152.9 768.5 156.2 768.2 159.4 768.0 162.6 767.7 165.6 767.4 168.6 767.2 171.5 766.9 174.2 766.6 176.9H769.96L773.2 176.9L776.4 177.0L779.6 177.1L782.7 177.2L782.4 181.3L782.2 185.3L781.9 189.4L781.7 193.4L781.4 197.5L781.2 201.6L780.9 205.6L780.6 209.7L780.2 213.8L779.9 218.0L779.5 222.1L779.0 226.4L778.5 230.6L778.0 234.9L777.4 239.2L776.8 243.5L776.1 247.9L775.5 252.3L774.7 256.7L774.0 261.1L773.2 265.5L772.4 269.9L771.6 274.3L770.8 278.7L769.9 283.1L769.1 287.4L768.2 291.8L767.4 296.0L766.6 300.3L765.7 304.5L764.9 308.6L764.1 312.7L763.3 316.8L762.5 320.8L761.8 324.7L761.0 328.5L760.3 332.3L759.6 336.0L758.9 339.7L758.2 343.2L757.6 346.7L757.0 350.1L756.4 353.5L755.8 356.7L755.2 359.9L754.7 363.0L754.2 366.0L753.7 369.0L753.2 371.9L752.7 374.6L752.3 377.3L751.8 380.0L751.4 382.5L751.0 385.0L750.6 387.3L750.2 389.6L749.9 391.8L749.5 393.9L749.2 396.0L748.8 397.9L748.5 399.8L748.2 401.5L747.9 403.2L747.6 404.8L747.4 406.2L747.1 407.6L746.9 408.9L746.7 410.1L746.5 411.1L749.8 410.4L753.4 409.6L757.2 408.9L761.1 408.3L765.0 407.7L769.0 407.1L772.8 406.7L776.6 406.4L780.2 406.1L783.6 406.0L786.8 405.9L790.2 405.9L793.7 405.9L797.3 406.1L800.8 406.3L804.2 406.5L807.5 406.8L810.6 407.2L813.5 407.6L816.1 407.9L816.1 407.0L816.2 406.0L816.2 404.9L816.3 403.7L816.3 402.4L816.4 401.1L816.4 399.6L816.5 398.1L816.6 396.5L816.7 394.8L816.8 393.0L816.9 391.1L817.0 389.2L817.1 387.1L817.3 385.0L817.4 382.8L817.6 380.5L817.8 378.1L818.1 375.6L818.3 373.0L818.6 370.3L818.9 367.6L819.3 364.7L819.7 361.7L820.1 358.7L820.5 355.5L821.0 352.3L821.5 348.9L822.1 345.5L822.7 342.0L823.3 338.4L824.0 334.7L824.6 330.9L825.4 327.1L826.1 323.1L826.9 319.1L827.7 315.0L828.5 310.9L829.3 306.7L830.1 302.5L831.0 298.2L831.8 293.9L832.6 289.5L833.5 285.2L834.3 280.8L835.1 276.4L835.8 272.0L836.6 267.7L837.3 263.3L837.9 259.0L838.5 254.7L839.1 250.4L839.6 246.2L840.1 242.0L840.5 237.9L840.8 233.8L841.1 229.7L841.4 225.7L841.6 221.8L841.8 217.8L842.0 213.9L842.1 210.0L842.2 206.1L842.3 202.2L842.5 198.3L842.6 194.4L842.8 190.4L843.0 186.3L843.3 182.2L846.4 182.4L849.5 182.6L852.6 182.7L855.8 182.9L859.0 183.0L859.2 180.3L859.4 177.5L859.7 174.5L860.1 171.4L860.5 168.1L860.9 164.6L861.4 161.1L862.0 157.4L862.6 153.6L863.3 149.8L864.0 145.9L864.7 141.9L865.5 138.0L866.3 134.0L867.1 130.1L868.0 126.2L868.9 122.1L869.9 118.0L871.0 113.8L872.0 109.6L873.0 105.4L874.1 101.2L875.1 97.1L876.1 93.0L877.1 88.9L878.1 85.0L879.1 81.2L880.0 77.5L880.8 74.0L881.6 70.6L882.4 67.5L883.1 64.5L879.4 65.0L875.8 65.4L872.2 65.8L868.7 66.2L865.1 66.5L861.6 66.9L858.1 67.1L854.6 67.4L851.2 67.6L847.8 67.9L844.3 68.1L840.9 68.3L837.5 68.5L834.1 68.7L830.6 68.9L827.2 69.1L823.8 69.3L820.4 69.5L816.9 69.8L813.5 70.0L810.0 70.2L806.6 70.5L803.1 70.7L799.6 71.0L796.1 71.3L792.6 71.6L789.0 72.0L785.5 72.3L782.0 72.7L778.4 73.1Z"/>
  </g>
  <g>
    <defs/>
    <path fill="rgba(116.66249999999998, 214.83750000000003, 178.02187500000002, 1.0)" stroke-width="0" stroke="rgba(0.0, 0.0, 0.0, 0.0)" d="M778.4 73.1 778.1 75.7 777.7 78.5 777.4 81.5 776.9 84.5 776.5 87.7 776.0 91.0 775.5 94.4 775.0 97.9 774.5 101.4 774.0 104.9 773.5 108.4 773.0 112.0 772.6 115.6 772.1 119.1 771.6 122.6 771.2 126.0 770.9 129.3 770.6 132.6 770.2 136.0 769.9 139.4 769.6 142.8 769.3 146.2 769.0 149.6 768.8 152.9 768.5 156.2 768.2 159.4 768.0 162.6 767.7 165.6 767.4 168.6 767.2 171.5 766.9 174.2 766.6 176.9H769.96L773.2 176.9L776.4 177.0L779.6 177.1L782.7 177.2L782.4 181.3L782.2 185.3L781.9 189.4L781.7 193.4L781.4 197.5L781.2 201.6L780.9 205.6L780.6 209.7L780.2 213.8L779.9 218.0L779.5 222.1L779.0 226.4L778.5 230.6L778.0 234.9L777.4 239.2L776.8 243.5L776.1 247.9L775.5 252.3L774.7 256.7L774.0 261.1L773.2 265.5L772.4 269.9L771.6 274.3L770.8 278.7L769.9 283.1L769.1 287.4L768.2 291.8L767.4 296.0L766.6 300.3L765.7 304.5L764.9 308.6L764.1 312.7L763.3 316.8L762.5 320.8L761.8 324.7L761.0 328.5L760.3 332.3L759.6 336.0L758.9 339.7L758.2 343.2L757.6 346.7L757.0 350.1L756.4 353.5L755.8 356.7L755.2 359.9L754.7 363.0L754.2 366.0L753.7 369.0L753.2 371.9L752.7 374.6L752.3 377.3L751.8 380.0L751.4 382.5L751.0 385.0L750.6 387.3L750.2 389.6L749.9 391.8L749.5 393.9L749.2 396.0L748.8 397.9L748.5 399.8L748.2 401.5L747.9 403.2L747.6 404.8L747.4 406.2L747.1 407.6L746.9 408.9L746.7 410.1L746.5 411.1L749.8 410.4L753.4 409.6L757.2 408.9L761.1 408.3L765.0 407.7L769.0 407.1L772.8 406.7L776.6 406.4L780.2 406.1L783.6 406.0L786.8 405.9L790.2 405.9L793.7 405.9L797.3 406.1L800.8 406.3L804.2 406.5L807.5 406.8L810.6 407.2L813.5 407.6L816.1 407.9L816.1 407.0L816.2 406.0L816.2 404.9L816.3 403.7L816.3 402.4L816.4 401.1L816.4 399.6L816.5 398.1L816.6 396.5L816.7 394.8L816.8 393.0L816.9 391.1L817.0 389.2L817.1 387.1L817.3 385.0L817.4 382.8L817.6 380.5L817.8 378.1L818.1 375.6L818.3 373.0L818.6 370.3L818.9 367.6L819.3 364.7L819.7 361.7L820.1 358.7L820.5 355.5L821.0 352.3L821.5 348.9L822.1 345.5L822.7 342.0L823.3 338.4L824.0 334.7L824.6 330.9L825.4 327.1L826.1 323.1L826.9 319.1L827.7 315.0L828.5 310.9L829.3 306.7L830.1 302.5L831.0 298.2L831.8 293.9L832.6 289.5L833.5 285.2L834.3 280.8L835.1 276.4L835.8 272.0L836.6 267.7L837.3 263.3L837.9 259.0L838.5 254.7L839.1 250.4L839.6 246.2L840.1 242.0L840.5 237.9L840.8 233.8L841.1 229.7L841.4 225.7L841.6 221.8L841.8 217.8L842.0 213.9L842.1 210.0L842.2 206.1L842.3 202.2L842.5 198.3L842.6 194.4L842.8 190.4L843.0 186.3L843.3 182.2L846.4 182.4L849.5 182.6L852.6 182.7L855.8 182.9L859.0 183.0L859.2 180.3L859.4 177.5L859.7 174.5L860.1 171.4L860.5 168.1L860.9 164.6L861.4 161.1L862.0 157.4L862.6 153.6L863.3 149.8L864.0 145.9L864.7 141.9L865.5 138.0L866.3 134.0L867.1 130.1L868.0 126.2L868.9 122.1L869.9 118.0L871.0 113.8L872.0 109.6L873.0 105.4L874.1 101.2L875.1 97.1L876.1 93.0L877.1 88.9L878.1 85.0L879.1 81.2L880.0 77.5L880.8 74.0L881.6 70.6L882.4 67.5L883.1 64.5L879.4 65.0L875.8 65.4L872.2 65.8L868.7 66.2L865.1 66.5L861.6 66.9L858.1 67.1L854.6 67.4L851.2 67.6L847.8 67.9L844.3 68.1L840.9 68.3L837.5 68.5L834.1 68.7L830.6 68.9L827.2 69.1L823.8 69.3L820.4 69.5L816.9 69.8L813.5 70.0L810.0 70.2L806.6 70.5L803.1 70.7L799.6 71.0L796.1 71.3L792.6 71.6L789.0 72.0L785.5 72.3L782.0 72.7L778.4 73.1Z"/>
  </g>
  <g>
    <defs/>
    <path fill="rgba(116.66249999999998, 214.83750000000003, 214.83750000000003, 1.0)" stroke-width="5" stroke="rgba(0.0, 0.0, 0.0, 1.0)" d="M671.8 426.9 674.3 426.4 676.8 425.8 679.3 425.2 681.7 424.5 684.1 423.8 686.5 423.1 688.8 422.3 691.1 421.5 693.3 420.6 695.5 419.7 697.7 418.7 699.9 417.7 702.0 416.6 704.1 415.4 706.1 414.2 708.1 413.0 710.1 411.6 712.0 410.3 713.9 408.8 715.8 407.3 717.6 405.7 719.4 404.0 721.2 402.3 722.9 400.5 724.6 398.6 726.3 396.7 727.9 394.6 729.5 392.5 731.1 390.3 732.7 388.0 734.2 385.6 735.7 383.1 737.1 380.6 738.6 377.9 740.0 375.1 741.4 372.3 742.8 369.3 744.1 366.2 745.5 363.0 746.8 359.6 748.1 356.2 749.5 352.6 750.8 348.9 752.1 345.0 753.4 341.0 754.7 336.8 756.0 332.5 757.4 328.1 758.7 323.4 760.0 318.7 761.4 313.7 762.8 308.6 764.1 303.3 765.5 297.9 766.9 292.3 768.2 286.6 769.6 280.7 770.9 274.6 772.2 268.5 773.5 262.2 774.6 255.9 775.8 249.4 776.8 242.9 777.8 236.3 778.6 229.7 779.4 223.0 780.0 216.2 780.5 209.7 780.8 203.5 781.0 197.5 781.2 191.7 781.3 186.1 781.4 180.8 781.3 175.5 781.3 170.5 781.2 165.6 781.1 160.8 780.9 156.1 780.7 151.6 780.5 147.3 780.2 143.1 779.9 139.0 779.6 135.0 779.2 131.2 778.8 127.5 778.3 124.0 777.7 120.6 777.1 117.4 776.5 114.3 775.7 111.3 775.0 108.6 774.1 105.9 773.1 103.4 772.1 101.1 771.1 98.8 769.9 96.8 768.7 94.8 767.4 93.0 766.1 91.4 764.6 89.9 763.1 88.4 761.6 87.2 760.0 86.0 758.2 84.9 756.5 84.0 754.6 83.2 752.8 82.5 750.8 81.9 748.8 81.4 746.7 80.9 744.5 80.6 742.4 80.4 740.1 80.2 737.8 80.2 735.4 80.2 733.0 80.3 730.5 80.4 727.9 80.7 725.3 81.0 722.7 81.3 720.0 81.7 717.2 82.2 713.4 82.9 709.5 83.6 705.7 84.2 701.8 84.9 697.9 85.6 694.1 86.3 690.2 87.0 686.4 87.6 682.5 88.3 678.7 88.9 674.9 89.6 671.1 90.2 667.3 90.8 663.5 91.4 659.7 91.9 656.0 92.5 652.2 93.0 648.5 93.5 644.8 94.0 644.4 97.0 643.9 100.0 643.5 102.9 643.1 105.9 642.7 108.8 642.4 111.7 642.0 114.6 641.6 117.5 641.3 120.4 641.0 123.3 640.7 126.2 640.4 129.1 640.1 132.0 639.8 134.9 639.5 137.8 639.2 140.7 639.0 143.6 638.7 146.5 638.4 149.5 638.1 152.5 637.9 155.5 637.6 158.5 637.3 161.6 637.0 164.6 636.7 167.8 636.4 171.0 636.0 174.2 635.6 177.4 635.2 180.8 634.8 184.1 634.4 187.6 633.9 191.0 633.4 194.6 632.9 198.2 632.3 201.9 631.7 205.6 631.1 209.5 630.4 213.4 629.8 217.3 629.0 221.4 628.3 225.4 627.6 229.6 626.8 233.7 626.0 238.0 625.3 242.2 624.5 246.6 623.7 251.0 622.9 255.4 622.0 259.9 621.2 264.4 620.4 269.0 619.6 273.5 618.8 277.9 618.0 282.3 617.2 286.6 616.4 290.9 615.7 295.1 614.9 299.3 614.1 303.4 613.4 307.5 612.6 311.6 611.9 315.6 611.2 319.5 610.5 323.4 609.7 327.3 609.0 331.1 608.3 334.9 607.6 338.6 606.9 342.4 606.2 346.0 605.5 349.7 604.8 353.3 604.1 356.9 603.5 360.4 602.8 363.9 602.1 367.4 601.5 370.8 600.8 374.2 600.1 377.6 599.5 381.0 598.8 384.4 598.2 387.7 597.5 391.0 596.9 394.3 596.3 397.5 595.6 400.8 595.0 404.0 594.4 407.2 593.7 410.4 593.1 413.6 592.5 416.7 591.9 419.9 591.2 423.0 590.6 426.2 590.0 429.3 589.4 432.4 588.8 435.5 588.2 438.6 587.6 441.7 587.0 444.8 590.8 444.0 594.7 443.1 598.6 442.3 602.5 441.4 606.4 440.5 610.4 439.6 614.3 438.7 618.2 437.9 622.1 437.0 626.0 436.1 629.8 435.3 633.7 434.5 637.5 433.7 641.4 432.9 645.2 432.1 649.0 431.3 652.8 430.6 656.6 429.9 660.4 429.1 664.2 428.4 668.0 427.6 671.8 426.9ZM678.7 321.1 679.2 318.2 679.7 315.2 680.3 312.1 680.8 309.0 681.4 305.8 682.0 302.5 682.6 299.2 683.2 295.9 683.8 292.4 684.5 288.9 685.1 285.3 685.8 281.7 686.5 277.9 687.3 274.1 688.0 270.2 688.8 266.2 689.5 262.1 690.3 257.9 691.2 253.6 692.0 249.2 692.9 244.7 693.7 240.1 694.5 235.9 695.2 231.7 696.0 227.5 696.7 223.5 697.4 219.5 698.1 215.6 698.8 211.7 699.5 207.9 700.2 204.2 700.8 200.5 701.4 196.9 702.0 193.4 702.6 190.0 703.2 186.7 703.7 183.5 704.2 180.3 704.6 177.2 705.1 174.2 705.5 171.2 705.9 168.3 706.2 165.5 706.6 162.7 707.0 160.0 707.3 157.4 707.6 154.8 711.1 154.0 712.1 153.9 713.0 153.8 713.8 153.9 714.6 154.0 715.3 154.3 716.0 154.8 716.6 155.6 717.1 156.5 717.6 157.7 718.0 159.2 718.3 161.1 718.5 163.2 718.7 165.8 718.8 168.8 718.7 172.3 718.5 176.3 718.2 180.8 717.7 185.9 717.0 191.7 716.2 198.2 715.1 205.5 713.8 213.5 712.3 222.2 710.6 231.8 708.9 240.9 707.2 249.5 705.7 257.4 704.2 264.7 702.7 271.4 701.4 277.6 700.1 283.2 698.9 288.3 697.7 292.9 696.6 297.0 695.6 300.6 694.6 303.9 693.6 306.8 692.7 309.3 691.8 311.4 690.9 313.3 690.0 314.8 689.2 316.1 688.3 317.2 687.4 318.1 686.5 318.8 685.6 319.3 684.7 319.8 683.7 320.1 682.7 320.4 678.7 321.1Z"/>
  </g>
  <g>
    <defs/>
    <path fill="rgba(116.66249999999998, 214.83750000000003, 214.83750000000003, 1.0)" stroke-width="0" stroke="rgba(0.0, 0.0, 0.0, 0.0)" d="M671.8 426.9 674.3 426.4 676.8 425.8 679.3 425.2 681.7 424.5 684.1 423.8 686.5 423.1 688.8 422.3 691.1 421.5 693.3 420.6 695.5 419.7 697.7 418.7 699.9 417.7 702.0 416.6 704.1 415.4 706.1 414.2 708.1 413.0 710.1 411.6 712.0 410.3 713.9 408.8 715.8 407.3 717.6 405.7 719.4 404.0 721.2 402.3 722.9 400.5 724.6 398.6 726.3 396.7 727.9 394.6 729.5 392.5 731.1 390.3 732.7 388.0 734.2 385.6 735.7 383.1 737.1 380.6 738.6 377.9 740.0 375.1 741.4 372.3 742.8 369.3 744.1 366.2 745.5 363.0 746.8 359.6 748.1 356.2 749.5 352.6 750.8 348.9 752.1 345.0 753.4 341.0 754.7 336.8 756.0 332.5 757.4 328.1 758.7 323.4 760.0 318.7 761.4 313.7 762.8 308.6 764.1 303.3 765.5 297.9 766.9 292.3 768.2 286.6 769.6 280.7 770.9 274.6 772.2 268.5 773.5 262.2 774.6 255.9 775.8 249.4 776.8 242.9 777.8 236.3 778.6 229.7 779.4 223.0 780.0 216.2 780.5 209.7 780.8 203.5 781.0 197.5 781.2 191.7 781.3 186.1 781.4 180.8 781.3 175.5 781.3 170.5 781.2 165.6 781.1 160.8 780.9 156.1 780.7 151.6 780.5 147.3 780.2 143.1 779.9 139.0 779.6 135.0 779.2 131.2 778.8 127.5 778.3 124.0 777.7 120.6 777.1 117.4 776.5 114.3 775.7 111.3 775.0 108.6 774.1 105.9 773.1 103.4 772.1 101.1 771.1 98.8 769.9 96.8 768.7 94.8 767.4 93.0 766.1 91.4 764.6 89.9 763.1 88.4 761.6 87.2 760.0 86.0 758.2 84.9 756.5 84.0 754.6 83.2 752.8 82.5 750.8 81.9 748.8 81.4 746.7 80.9 744.5 80.6 742.4 80.4 740.1 80.2 737.8 80.2 735.4 80.2 733.0 80.3 730.5 80.4 727.9 80.7 725.3 81.0 722.7 81.3 720.0 81.7 717.2 82.2 713.4 82.9 709.5 83.6 705.7 84.2 701.8 84.9 697.9 85.6 694.1 86.3 690.2 87.0 686.4 87.6 682.5 88.3 678.7 88.9 674.9 89.6 671.1 90.2 667.3 90.8 663.5 91.4 659.7 91.9 656.0 92.5 652.2 93.0 648.5 93.5 644.8 94.0 644.4 97.0 643.9 100.0 643.5 102.9 643.1 105.9 642.7 108.8 642.4 111.7 642.0 114.6 641.6 117.5 641.3 120.4 641.0 123.3 640.7 126.2 640.4 129.1 640.1 132.0 639.8 134.9 639.5 137.8 639.2 140.7 639.0 143.6 638.7 146.5 638.4 149.5 638.1 152.5 637.9 155.5 637.6 158.5 637.3 161.6 637.0 164.6 636.7 167.8 636.4 171.0 636.0 174.2 635.6 177.4 635.2 180.8 634.8 184.1 634.4 187.6 633.9 191.0 633.4 194.6 632.9 198.2 632.3 201.9 631.7 205.6 631.1 209.5 630.4 213.4 629.8 217.3 629.0 221.4 628.3 225.4 627.6 229.6 626.8 233.7 626.0 238.0 625.3 242.2 624.5 246.6 623.7 251.0 622.9 255.4 622.0 259.9 621.2 264.4 620.4 269.0 619.6 273.5 618.8 277.9 618.0 282.3 617.2 286.6 616.4 290.9 615.7 295.1 614.9 299.3 614.1 303.4 613.4 307.5 612.6 311.6 611.9 315.6 611.2 319.5 610.5 323.4 609.7 327.3 609.0 331.1 608.3 334.9 607.6 338.6 606.9 342.4 606.2 346.0 605.5 349.7 604.8 353.3 604.1 356.9 603.5 360.4 602.8 363.9 602.1 367.4 601.5 370.8 600.8 374.2 600.1 377.6 599.5 381.0 598.8 384.4 598.2 387.7 597.5 391.0 596.9 394.3 596.3 397.5 595.6 400.8 595.0 404.0 594.4 407.2 593.7 410.4 593.1 413.6 592.5 416.7 591.9 419.9 591.2 423.0 590.6 426.2 590.0 429.3 589.4 432.4 588.8 435.5 588.2 438.6 587.6 441.7 587.0 444.8 590.8 444.0 594.7 443.1 598.6 442.3 602.5 441.4 606.4 440.5 610.4 439.6 614.3 438.7 618.2 437.9 622.1 437.0 626.0 436.1 629.8 435.3 633.7 434.5 637.5 433.7 641.4 432.9 645.2 432.1 649.0 431.3 652.8 430.6 656.6 429.9 660.4 429.1 664.2 428.4 668.0 427.6 671.8 426.9ZM678.7 321.1 679.2 318.2 679.7 315.2 680.3 312.1 680.8 309.0 681.4 305.8 682.0 302.5 682.6 299.2 683.2 295.9 683.8 292.4 684.5 288.9 685.1 285.3 685.8 281.7 686.5 277.9 687.3 274.1 688.0 270.2 688.8 266.2 689.5 262.1 690.3 257.9 691.2 253.6 692.0 249.2 692.9 244.7 693.7 240.1 694.5 235.9 695.2 231.7 696.0 227.5 696.7 223.5 697.4 219.5 698.1 215.6 698.8 211.7 699.5 207.9 700.2 204.2 700.8 200.5 701.4 196.9 702.0 193.4 702.6 190.0 703.2 186.7 703.7 183.5 704.2 180.3 704.6 177.2 705.1 174.2 705.5 171.2 705.9 168.3 706.2 165.5 706.6 162.7 707.0 160.0 707.3 157.4 707.6 154.8 711.1 154.0 712.1 153.9 713.0 153.8 713.8 153.9 714.6 154.0 715.3 154.3 716.0 154.8 716.6 155.6 717.1 156.5 717.6 157.7 718.0 159.2 718.3 161.1 718.5 163.2 718.7 165.8 718.8 168.8 718.7 172.3 718.5 176.3 718.2 180.8 717.7 185.9 717.0 191.7 716.2 198.2 715.1 205.5 713.8 213.5 712.3 222.2 710.6 231.8 708.9 240.9 707.2 249.5 705.7 257.4 704.2 264.7 702.7 271.4 701.4 277.6 700.1 283.2 698.9 288.3 697.7 292.9 696.6 297.0 695.6 300.6 694.6 303.9 693.6 306.8 692.7 309.3 691.8 311.4 690.9 313.3 690.0 314.8 689.2 316.1 688.3 317.2 687.4 318.1 686.5 318.8 685.6 319.3 684.7 319.8 683.7 320.1 682.7 320.4 678.7 321.1Z"/>
  </g>
  <g>
    <defs/>
    <path fill="rgba(116.66249999999998, 178.02187500000002, 214.83750000000003, 1.0)" stroke-width="5" stroke="rgba(0.0, 0.0, 0.0, 1.0)" d="M608.3 440.1 608.8 437.1 609.3 433.9 609.8 430.6 610.4 427.2 611.0 423.7 611.7 420.0 612.3 416.3 613.0 412.5 613.7 408.6 614.4 404.8 615.1 400.9 615.8 396.9 616.5 393.1 617.2 389.2 617.9 385.4 618.5 381.6 619.1 378.0 619.9 374.2 620.6 370.4 621.3 366.6 622.0 362.9 622.8 359.1 623.5 355.4 624.1 351.7 624.8 348.1 625.5 344.5 626.2 341.0 626.8 337.7 627.5 334.4 628.1 331.4 628.7 328.4 629.3 325.6 625.1 326.5 620.9 327.5 616.8 328.6 612.8 329.6 608.8 330.7 609.5 326.9 610.2 323.0 610.9 319.1 611.6 315.2 612.3 311.3 613.0 307.4 613.7 303.5 614.4 299.6 615.0 295.8 615.7 292.0 616.4 288.2 617.0 284.5 617.7 280.9 618.3 277.3 618.9 273.9 619.5 270.5 620.1 267.2 620.7 264.1 621.2 261.0 622.1 256.5 622.9 251.9 623.8 247.4 624.6 242.8 625.5 238.3 626.3 233.7 627.2 229.2 628.0 224.7 628.8 220.2 629.6 215.7 630.5 211.3 631.2 207.0 631.9 202.7 632.6 198.4 633.3 194.3 633.9 190.2 634.5 186.2 635.0 182.2 635.6 178.4 636.1 174.6 636.5 170.8 637.0 167.2 637.4 163.6 637.8 160.0 638.2 156.6 638.6 153.1 639.0 149.8 639.3 146.5 639.7 143.3 640.0 140.1 640.4 137.0 640.8 133.9 641.1 130.9 641.5 128.0 641.9 125.2 642.3 122.4 642.6 119.6 643.0 117.0 643.4 114.4 643.8 111.9 644.2 109.5 644.5 107.2 644.9 105.0 645.2 102.8 645.6 100.8 645.9 98.9 646.3 97.1 646.6 95.4 646.9 93.8 643.2 94.2 639.5 94.7 635.8 95.2 632.2 95.6 628.5 96.0 624.9 96.5 621.2 96.9 617.6 97.3 614.0 97.7 610.3 98.2 606.7 98.6 603.0 99.1 599.3 99.6 595.6 100.1 591.9 100.6 588.2 101.1 584.4 101.6 580.7 102.2 576.9 102.7 573.2 103.3 572.8 105.5 572.4 107.7 572.0 110.1 571.5 112.5 571.1 115.0 570.6 117.6 570.1 120.2 569.7 122.9 569.2 125.6 568.7 128.4 568.2 131.3 567.7 134.2 567.2 137.2 566.7 140.2 566.2 143.3 565.7 146.5 565.2 149.6 564.7 152.9 564.1 156.1 563.6 159.5 563.1 162.8 562.6 166.3 562.0 169.7 561.5 173.2 561.0 176.8 560.4 180.4 559.9 184.0 559.3 187.8 558.7 191.5 558.1 195.3 557.5 199.1 556.9 203.1 556.2 207.0 555.6 211.0 554.9 215.1 554.2 219.1 553.5 223.3 552.8 227.5 552.0 231.7 551.2 236.0 550.5 240.3 549.7 244.7 548.9 249.0 548.2 253.4 547.4 257.8 546.6 262.2 545.8 266.7 545.1 271.1 544.3 275.6 543.5 280.1 542.8 284.6 542.0 289.1 541.3 293.6 540.6 298.1 539.8 302.6 539.1 307.0 538.4 311.4 537.7 315.8 537.0 320.2 536.2 324.6 535.5 328.9 534.8 333.1 534.1 337.4 533.5 341.6 532.8 345.8 532.1 349.9 531.5 354.0 530.8 358.1 530.2 362.1 529.5 366.0 528.9 369.9 528.3 373.8 527.7 377.6 527.1 381.4 526.5 385.0 526.0 388.7 525.4 392.2 524.9 395.7 524.3 399.2 523.8 402.5 523.3 405.8 522.8 409.1 522.3 412.2 521.9 415.3 521.4 418.3 521.0 421.2 520.5 424.1 520.1 426.8 519.7 429.5 519.4 432.1 519.0 434.6 518.6 437.0 518.3 439.3 518.0 441.5 517.7 443.7 517.4 445.7 517.1 447.6 516.8 449.4 516.6 451.2 516.4 452.8 519.6 452.8 522.8 452.9 526.1 452.8 529.4 452.8 532.7 452.6 536.1 452.5 539.6 452.2 543.1 451.9 546.6 451.6 550.2 451.2 553.9 450.7 557.5 450.2 561.2 449.6 565.0 449.0 568.8 448.4 572.7 447.7 576.5 446.9 580.4 446.2 584.4 445.4 588.3 444.5 592.3 443.7 596.3 442.8 600.3 441.9 604.3 441.0 608.3 440.1Z"/>
  </g>
  <g>
    <defs/>
    <path fill="rgba(116.66249999999998, 178.02187500000002, 214.83750000000003, 1.0)" stroke-width="0" stroke="rgba(0.0, 0.0, 0.0, 0.0)" d="M608.3 440.1 608.8 437.1 609.3 433.9 609.8 430.6 610.4 427.2 611.0 423.7 611.7 420.0 612.3 416.3 613.0 412.5 613.7 408.6 614.4 404.8 615.1 400.9 615.8 396.9 616.5 393.1 617.2 389.2 617.9 385.4 618.5 381.6 619.1 378.0 619.9 374.2 620.6 370.4 621.3 366.6 622.0 362.9 622.8 359.1 623.5 355.4 624.1 351.7 624.8 348.1 625.5 344.5 626.2 341.0 626.8 337.7 627.5 334.4 628.1 331.4 628.7 328.4 629.3 325.6 625.1 326.5 620.9 327.5 616.8 328.6 612.8 329.6 608.8 330.7 609.5 326.9 610.2 323.0 610.9 319.1 611.6 315.2 612.3 311.3 613.0 307.4 613.7 303.5 614.4 299.6 615.0 295.8 615.7 292.0 616.4 288.2 617.0 284.5 617.7 280.9 618.3 277.3 618.9 273.9 619.5 270.5 620.1 267.2 620.7 264.1 621.2 261.0 622.1 256.5 622.9 251.9 623.8 247.4 624.6 242.8 625.5 238.3 626.3 233.7 627.2 229.2 628.0 224.7 628.8 220.2 629.6 215.7 630.5 211.3 631.2 207.0 631.9 202.7 632.6 198.4 633.3 194.3 633.9 190.2 634.5 186.2 635.0 182.2 635.6 178.4 636.1 174.6 636.5 170.8 637.0 167.2 637.4 163.6 637.8 160.0 638.2 156.6 638.6 153.1 639.0 149.8 639.3 146.5 639.7 143.3 640.0 140.1 640.4 137.0 640.8 133.9 641.1 130.9 641.5 128.0 641.9 125.2 642.3 122.4 642.6 119.6 643.0 117.0 643.4 114.4 643.8 111.9 644.2 109.5 644.5 107.2 644.9 105.0 645.2 102.8 645.6 100.8 645.9 98.9 646.3 97.1 646.6 95.4 646.9 93.8 643.2 94.2 639.5 94.7 635.8 95.2 632.2 95.6 628.5 96.0 624.9 96.5 621.2 96.9 617.6 97.3 614.0 97.7 610.3 98.2 606.7 98.6 603.0 99.1 599.3 99.6 595.6 100.1 591.9 100.6 588.2 101.1 584.4 101.6 580.7 102.2 576.9 102.7 573.2 103.3 572.8 105.5 572.4 107.7 572.0 110.1 571.5 112.5 571.1 115.0 570.6 117.6 570.1 120.2 569.7 122.9 569.2 125.6 568.7 128.4 568.2 131.3 567.7 134.2 567.2 137.2 566.7 140.2 566.2 143.3 565.7 146.5 565.2 149.6 564.7 152.9 564.1 156.1 563.6 159.5 563.1 162.8 562.6 166.3 562.0 169.7 561.5 173.2 561.0 176.8 560.4 180.4 559.9 184.0 559.3 187.8 558.7 191.5 558.1 195.3 557.5 199.1 556.9 203.1 556.2 207.0 555.6 211.0 554.9 215.1 554.2 219.1 553.5 223.3 552.8 227.5 552.0 231.7 551.2 236.0 550.5 240.3 549.7 244.7 548.9 249.0 548.2 253.4 547.4 257.8 546.6 262.2 545.8 266.7 545.1 271.1 544.3 275.6 543.5 280.1 542.8 284.6 542.0 289.1 541.3 293.6 540.6 298.1 539.8 302.6 539.1 307.0 538.4 311.4 537.7 315.8 537.0 320.2 536.2 324.6 535.5 328.9 534.8 333.1 534.1 337.4 533.5 341.6 532.8 345.8 532.1 349.9 531.5 354.0 530.8 358.1 530.2 362.1 529.5 366.0 528.9 369.9 528.3 373.8 527.7 377.6 527.1 381.4 526.5 385.0 526.0 388.7 525.4 392.2 524.9 395.7 524.3 399.2 523.8 402.5 523.3 405.8 522.8 409.1 522.3 412.2 521.9 415.3 521.4 418.3 521.0 421.2 520.5 424.1 520.1 426.8 519.7 429.5 519.4 432.1 519.0 434.6 518.6 437.0 518.3 439.3 518.0 441.5 517.7 443.7 517.4 445.7 517.1 447.6 516.8 449.4 516.6 451.2 516.4 452.8 519.6 452.8 522.8 452.9 526.1 452.8 529.4 452.8 532.7 452.6 536.1 452.5 539.6 452.2 543.1 451.9 546.6 451.6 550.2 451.2 553.9 450.7 557.5 450.2 561.2 449.6 565.0 449.0 568.8 448.4 572.7 447.7 576.5 446.9 580.4 446.2 584.4 445.4 588.3 444.5 592.3 443.7 596.3 442.8 600.3 441.9 604.3 441.0 608.3 440.1Z"/>
  </g>
  <g>
    <defs/>
    <path fill="rgba(116.66249999999998, 141.20624999999998, 214.83750000000003, 1.0)" stroke-width="5" stroke="rgba(0.0, 0.0, 0.0, 1.0)" d="M560.0 272.0 561.3 264.6 562.5 257.3 563.7 250.3 564.8 243.5 565.8 236.8 566.7 230.4 567.6 224.2 568.3 218.2 568.9 212.5 569.4 207.0 569.8 201.6 570.1 196.6 570.4 191.7 570.5 186.9 570.5 182.4 570.5 178.1 570.4 173.9 570.2 169.9 570.0 166.0 569.7 162.2 569.3 158.7 568.9 155.2 568.4 151.9 567.9 148.7 567.3 145.7 566.6 142.7 565.9 139.9 565.1 137.3 564.3 134.7 563.4 132.3 562.4 130.0 561.4 127.8 560.3 125.7 559.1 123.8 557.9 121.9 556.6 120.2 555.2 118.6 553.8 117.1 552.3 115.8 550.7 114.5 549.1 113.3 547.4 112.2 545.6 111.3 543.7 110.4 541.8 109.6 539.8 109.0 537.8 108.4 535.6 107.9 533.4 107.5 531.2 107.2 528.8 106.9 526.5 106.7 524.0 106.6 521.5 106.5H518.93L516.3 106.6L513.6 106.7L510.9 106.9L508.7 107.0L506.5 107.2L504.4 107.4L502.4 107.7L500.3 108.0L498.3 108.4L496.4 108.8L494.5 109.3L492.6 109.8L490.8 110.4L489.0 111.0L487.2 111.7L485.5 112.5L483.8 113.3L482.1 114.2L480.5 115.2L478.9 116.3L477.3 117.4L475.8 118.6L474.3 120.0L472.8 121.4L471.4 122.9L469.9 124.4L468.6 126.1L467.2 127.9L465.8 129.8L464.5 131.7L463.2 133.8L461.9 136.0L460.7 138.3L459.5 140.7L458.3 143.3L457.1 145.9L455.9 148.7L454.8 151.6L453.6 154.6L452.5 157.8L451.4 161.1L450.3 164.5L449.2 168.0L448.2 171.7L447.1 175.6L446.1 179.6L445.1 183.7L444.0 188.0L443.0 192.5L442.0 197.1L441.0 201.9L440.1 206.8L439.1 211.9L438.1 217.1L437.1 222.6L436.2 228.2L435.2 234.0L434.3 239.9L433.3 246.0L432.4 252.3L431.4 258.8L430.5 265.5L429.6 272.2L428.8 278.8L428.0 285.2L427.2 291.5L426.5 297.7L425.9 303.7L425.2 309.5L424.7 315.2L424.2 320.8L423.7 326.2L423.3 331.5L422.9 336.6L422.6 341.6L422.3 346.5L422.0 351.3L421.9 355.9L421.7 360.4L421.7 364.7L421.6 369.0L421.6 373.1L421.7 377.0L421.9 380.9L422.0 384.6L422.3 388.3L422.5 391.8L422.9 395.2L423.3 398.4L423.7 401.6L424.2 404.7L424.8 407.6L425.4 410.4L426.0 413.2L426.7 415.8L427.5 418.3L428.3 420.7L429.2 423.0L430.1 425.3L431.1 427.4L432.2 429.4L433.3 431.3L434.5 433.2L435.7 434.9L437.0 436.5L438.3 438.1L439.7 439.6L441.2 441.0L442.7 442.3L444.3 443.5L445.9 444.6L447.6 445.7L449.4 446.6L451.2 447.5L453.1 448.4L455.1 449.1L457.1 449.8L459.2 450.4L461.3 451.0L463.5 451.5L465.7 451.9L468.0 452.3L470.4 452.6L472.8 452.9L475.2 453.2L477.2 453.3L479.1 453.4L481.0 453.4L482.8 453.4L484.6 453.3L486.3 453.1L488.1 452.9L489.8 452.6L491.4 452.3L493.0 451.8L494.6 451.3L496.2 450.7L497.8 450.1L499.3 449.3L500.8 448.5L502.2 447.6L503.7 446.6L505.1 445.5L506.5 444.3L507.9 443.0L509.3 441.7L510.6 440.2L511.9 438.6L513.2 437.0L514.5 435.2L515.8 433.4L517.1 431.4L518.3 429.3L519.6 427.1L520.8 424.9L522.0 422.5L523.2 420.0L524.4 417.3L525.6 414.6L526.8 411.8L527.9 408.8L529.1 405.7L530.2 402.5L531.4 399.2L532.5 395.7L533.6 392.2L534.8 388.5L535.9 384.6L537.0 380.7L538.1 376.6L539.2 372.4L540.3 368.0L541.5 363.6L542.6 358.9L543.7 354.2L544.8 349.2L545.9 344.2L547.1 339.0L548.2 333.7L549.3 328.2L550.5 322.6L551.6 316.8L552.8 310.9L554.0 304.8L555.1 298.5L556.3 292.1L557.5 285.6L558.7 278.9L560.0 272.0ZM481.9 345.7 481.1 345.6 480.5 345.4 479.9 345.1 479.4 344.7 478.9 344.1 478.5 343.3 478.2 342.2 478.0 340.9 477.8 339.4 477.7 337.5 477.7 335.2 477.8 332.6 478.0 329.6 478.3 326.2 478.6 322.2 479.1 317.9 479.7 312.9 480.3 307.5 481.1 301.4 481.9 294.8 482.9 287.5 484.0 279.5 485.2 270.9 486.4 262.1 487.6 254.0 488.7 246.5 489.7 239.7 490.6 233.5 491.5 227.8 492.3 222.7 493.0 218.1 493.7 214.0 494.3 210.4 494.9 207.2 495.5 204.4 496.0 202.0 496.5 199.9 497.0 198.2 497.5 196.8 497.9 195.6 498.4 194.7 498.9 194.0 499.3 193.5 499.8 193.1 500.3 192.9 500.8 192.8 501.4 192.8 502.1 192.8 502.9 192.9 503.5 193.2 504.1 193.5 504.6 194.0 505.1 194.7 505.5 195.6 505.8 196.8 506.0 198.2 506.2 200.0 506.2 202.1 506.2 204.5 506.1 207.3 505.9 210.6 505.5 214.3 505.1 218.4 504.6 223.1 504.0 228.3 503.2 234.1 502.4 240.4 501.4 247.3 500.3 254.9 499.1 263.1 497.8 272.0 496.5 280.7 495.4 288.7 494.3 296.0 493.3 302.6 492.4 308.7 491.5 314.1 490.8 319.0 490.0 323.4 489.4 327.3 488.7 330.7 488.1 333.6 487.6 336.2 487.0 338.4 486.5 340.2 486.0 341.7 485.5 343.0 485.0 343.9 484.6 344.6 484.1 345.2 483.5 345.5 483.0 345.7 482.4 345.8 481.9 345.7Z"/>
  </g>
  <g>
    <defs/>
    <path fill="rgba(116.66249999999998, 141.20624999999998, 214.83750000000003, 1.0)" stroke-width="0" stroke="rgba(0.0, 0.0, 0.0, 0.0)" d="M560.0 272.0 561.3 264.6 562.5 257.3 563.7 250.3 564.8 243.5 565.8 236.8 566.7 230.4 567.6 224.2 568.3 218.2 568.9 212.5 569.4 207.0 569.8 201.6 570.1 196.6 570.4 191.7 570.5 186.9 570.5 182.4 570.5 178.1 570.4 173.9 570.2 169.9 570.0 166.0 569.7 162.2 569.3 158.7 568.9 155.2 568.4 151.9 567.9 148.7 567.3 145.7 566.6 142.7 565.9 139.9 565.1 137.3 564.3 134.7 563.4 132.3 562.4 130.0 561.4 127.8 560.3 125.7 559.1 123.8 557.9 121.9 556.6 120.2 555.2 118.6 553.8 117.1 552.3 115.8 550.7 114.5 549.1 113.3 547.4 112.2 545.6 111.3 543.7 110.4 541.8 109.6 539.8 109.0 537.8 108.4 535.6 107.9 533.4 107.5 531.2 107.2 528.8 106.9 526.5 106.7 524.0 106.6 521.5 106.5H518.93L516.3 106.6L513.6 106.7L510.9 106.9L508.7 107.0L506.5 107.2L504.4 107.4L502.4 107.7L500.3 108.0L498.3 108.4L496.4 108.8L494.5 109.3L492.6 109.8L490.8 110.4L489.0 111.0L487.2 111.7L485.5 112.5L483.8 113.3L482.1 114.2L480.5 115.2L478.9 116.3L477.3 117.4L475.8 118.6L474.3 120.0L472.8 121.4L471.4 122.9L469.9 124.4L468.6 126.1L467.2 127.9L465.8 129.8L464.5 131.7L463.2 133.8L461.9 136.0L460.7 138.3L459.5 140.7L458.3 143.3L457.1 145.9L455.9 148.7L454.8 151.6L453.6 154.6L452.5 157.8L451.4 161.1L450.3 164.5L449.2 168.0L448.2 171.7L447.1 175.6L446.1 179.6L445.1 183.7L444.0 188.0L443.0 192.5L442.0 197.1L441.0 201.9L440.1 206.8L439.1 211.9L438.1 217.1L437.1 222.6L436.2 228.2L435.2 234.0L434.3 239.9L433.3 246.0L432.4 252.3L431.4 258.8L430.5 265.5L429.6 272.2L428.8 278.8L428.0 285.2L427.2 291.5L426.5 297.7L425.9 303.7L425.2 309.5L424.7 315.2L424.2 320.8L423.7 326.2L423.3 331.5L422.9 336.6L422.6 341.6L422.3 346.5L422.0 351.3L421.9 355.9L421.7 360.4L421.7 364.7L421.6 369.0L421.6 373.1L421.7 377.0L421.9 380.9L422.0 384.6L422.3 388.3L422.5 391.8L422.9 395.2L423.3 398.4L423.7 401.6L424.2 404.7L424.8 407.6L425.4 410.4L426.0 413.2L426.7 415.8L427.5 418.3L428.3 420.7L429.2 423.0L430.1 425.3L431.1 427.4L432.2 429.4L433.3 431.3L434.5 433.2L435.7 434.9L437.0 436.5L438.3 438.1L439.7 439.6L441.2 441.0L442.7 442.3L444.3 443.5L445.9 444.6L447.6 445.7L449.4 446.6L451.2 447.5L453.1 448.4L455.1 449.1L457.1 449.8L459.2 450.4L461.3 451.0L463.5 451.5L465.7 451.9L468.0 452.3L470.4 452.6L472.8 452.9L475.2 453.2L477.2 453.3L479.1 453.4L481.0 453.4L482.8 453.4L484.6 453.3L486.3 453.1L488.1 452.9L489.8 452.6L491.4 452.3L493.0 451.8L494.6 451.3L496.2 450.7L497.8 450.1L499.3 449.3L500.8 448.5L502.2 447.6L503.7 446.6L505.1 445.5L506.5 444.3L507.9 443.0L509.3 441.7L510.6 440.2L511.9 438.6L513.2 437.0L514.5 435.2L515.8 433.4L517.1 431.4L518.3 429.3L519.6 427.1L520.8 424.9L522.0 422.5L523.2 420.0L524.4 417.3L525.6 414.6L526.8 411.8L527.9 408.8L529.1 405.7L530.2 402.5L531.4 399.2L532.5 395.7L533.6 392.2L534.8 388.5L535.9 384.6L537.0 380.7L538.1 376.6L539.2 372.4L540.3 368.0L541.5 363.6L542.6 358.9L543.7 354.2L544.8 349.2L545.9 344.2L547.1 339.0L548.2 333.7L549.3 328.2L550.5 322.6L551.6 316.8L552.8 310.9L554.0 304.8L555.1 298.5L556.3 292.1L557.5 285.6L558.7 278.9L560.0 272.0ZM481.9 345.7 481.1 345.6 480.5 345.4 479.9 345.1 479.4 344.7 478.9 344.1 478.5 343.3 478.2 342.2 478.0 340.9 477.8 339.4 477.7 337.5 477.7 335.2 477.8 332.6 478.0 329.6 478.3 326.2 478.6 322.2 479.1 317.9 479.7 312.9 480.3 307.5 481.1 301.4 481.9 294.8 482.9 287.5 484.0 279.5 485.2 270.9 486.4 262.1 487.6 254.0 488.7 246.5 489.7 239.7 490.6 233.5 491.5 227.8 492.3 222.7 493.0 218.1 493.7 214.0 494.3 210.4 494.9 207.2 495.5 204.4 496.0 202.0 496.5 199.9 497.0 198.2 497.5 196.8 497.9 195.6 498.4 194.7 498.9 194.0 499.3 193.5 499.8 193.1 500.3 192.9 500.8 192.8 501.4 192.8 502.1 192.8 502.9 192.9 503.5 193.2 504.1 193.5 504.6 194.0 505.1 194.7 505.5 195.6 505.8 196.8 506.0 198.2 506.2 200.0 506.2 202.1 506.2 204.5 506.1 207.3 505.9 210.6 505.5 214.3 505.1 218.4 504.6 223.1 504.0 228.3 503.2 234.1 502.4 240.4 501.4 247.3 500.3 254.9 499.1 263.1 497.8 272.0 496.5 280.7 495.4 288.7 494.3 296.0 493.3 302.6 492.4 308.7 491.5 314.1 490.8 319.0 490.0 323.4 489.4 327.3 488.7 330.7 488.1 333.6 487.6 336.2 487.0 338.4 486.5 340.2 486.0 341.7 485.5 343.0 485.0 343.9 484.6 344.6 484.1 345.2 483.5 345.5 483.0 345.7 482.4 345.8 481.9 345.7Z"/>
  </g>
  <g>
    <defs/>
    <path fill="rgba(128.934375, 116.66249999999998, 214.83750000000003, 1.0)" stroke-width="5" stroke="rgba(0.0, 0.0, 0.0, 1.0)" d="M421.3 243.5 415.7 243.0 411.4 242.1 408.3 240.8 406.2 239.0 405.2 236.8 405.1 234.0 405.8 231.8 407.2 230.2 409.4 229.1 412.4 228.4 416.4 228.2 421.4 228.3 424.3 228.4 427.4 228.7 430.5 229.0 433.8 229.4 437.1 229.9 440.4 230.4 443.8 231.1 447.2 231.9 447.8 227.9 448.3 224.0 448.8 220.2 449.4 216.6 449.9 213.0 450.4 209.5 450.9 206.1 451.3 202.8 451.8 199.6 452.3 196.4 452.7 193.3 453.2 190.3 453.7 187.3 454.1 184.3 454.6 181.4 455.0 178.5 455.5 175.6 455.9 172.7 456.4 169.8 456.9 166.9 457.3 164.0 457.8 161.1 458.3 158.2 458.8 155.2 459.3 152.1 459.8 149.1 460.3 145.9 460.8 142.7 461.4 139.5 462.0 136.1 462.5 132.7 463.1 129.1 463.8 125.5 464.4 121.7 465.1 117.8 465.8 113.8 463.5 112.9 461.1 112.0 458.6 111.2 456.0 110.3 453.3 109.5 450.4 108.8 447.4 108.1 444.2 107.5 441.0 107.0 437.6 106.5 434.0 106.2 430.3 105.9 428.2 105.9 426.0 105.8 423.9 105.8 421.9 105.9 419.9 106.0 417.9 106.2 415.9 106.4 414.0 106.8 412.2 107.1 410.3 107.6 408.5 108.1 406.7 108.7 405.0 109.4 403.3 110.1 401.6 111.0 399.9 111.9 398.3 112.9 396.6 114.0 395.1 115.2 393.5 116.6 391.9 118.0 390.4 119.5 388.9 121.1 387.5 122.8 386.0 124.6 384.6 126.6 383.2 128.6 381.9 130.8 380.5 133.0 379.2 135.4 377.9 137.9 376.7 140.5 375.4 143.2 374.2 146.1 373.1 149.0 371.9 152.1 370.8 155.3 369.7 158.7 368.6 162.2 367.5 165.8 366.5 169.5 365.4 173.4 364.4 177.5 363.4 181.7 362.4 186.1 361.4 190.6 360.4 195.4 359.4 200.3 358.3 205.5 357.2 210.8 356.1 216.4 354.9 222.2 353.7 228.3 352.4 234.6 351.1 241.2 349.8 247.9 348.4 254.9 347.0 262.1 345.5 270.3 344.0 278.3 342.7 285.9 341.5 293.4 340.4 300.5 339.5 307.3 338.7 313.9 337.9 320.2 337.3 326.3 336.8 332.2 336.4 337.8 336.1 343.2 335.8 348.5 335.6 353.5 335.5 358.4 335.4 363.1 335.4 367.6 335.4 372.0 335.5 376.3 335.6 380.4 335.7 384.4 335.9 388.2 336.1 391.9 336.3 395.5 336.6 399.0 336.9 402.3 337.3 405.6 337.7 408.6 338.2 411.6 338.7 414.5 339.2 417.2 339.8 419.8 340.5 422.2 341.2 424.6 341.9 426.8 342.8 428.9 343.6 430.9 344.6 432.8 345.6 434.6 346.6 436.2 347.7 437.7 348.9 439.2 350.1 440.5 351.4 441.7 352.7 442.8 354.1 443.8 355.6 444.7 357.1 445.5 358.6 446.3 360.2 446.9 361.9 447.5 363.6 448.0 365.3 448.4 367.1 448.8 369.0 449.0 370.9 449.3 372.8 449.4 374.8 449.6 376.9 449.6 378.9 449.6 381.0 449.6 383.1 449.6 385.3 449.5 389.6 449.2 393.7 448.8 397.5 448.4 401.0 447.9 404.4 447.3 407.5 446.7 410.5 446.0 413.4 445.3 416.1 444.6 418.7 443.8 421.2 443.1 421.6 440.2 421.9 437.2 422.3 434.2 422.6 431.1 423.0 428.1 423.3 424.9 423.7 421.8 424.1 418.6 424.5 415.3 424.9 412.1 425.2 408.8 425.6 405.5 426.0 402.1 426.4 398.7 426.8 395.3 427.2 391.9 427.6 388.4 428.1 385.0 428.5 381.5 428.9 378.0 429.3 374.5 429.8 370.9 430.2 367.4 430.6 363.9 431.1 360.3 431.5 356.7 431.9 353.1 432.4 349.6 432.8 346.0 433.3 342.4 433.7 338.8 434.2 335.2 434.6 331.6 435.1 328.1 435.5 324.5 435.9 321.0 436.4 317.4 436.8 313.9 437.3 310.4 437.7 306.9 438.1 303.4 438.6 299.9 439.0 296.5 439.4 293.1 439.9 289.7 440.3 286.3 440.7 282.9 441.1 279.6 441.5 276.3 441.9 273.1 442.3 269.9 442.7 266.7 443.1 263.5 443.5 260.4 443.9 257.4 444.2 254.3 444.6 251.4 444.9 248.4 445.3 245.5 445.6 242.7 442.8 242.9 440.0 243.1 437.0 243.3 434.0 243.4 430.9 243.6 427.8 243.6 424.6 243.6 421.3 243.5Z"/>
  </g>
  <g>
    <defs/>
    <path fill="rgba(128.934375, 116.66249999999998, 214.83750000000003, 1.0)" stroke-width="0" stroke="rgba(0.0, 0.0, 0.0, 0.0)" d="M421.3 243.5 415.7 243.0 411.4 242.1 408.3 240.8 406.2 239.0 405.2 236.8 405.1 234.0 405.8 231.8 407.2 230.2 409.4 229.1 412.4 228.4 416.4 228.2 421.4 228.3 424.3 228.4 427.4 228.7 430.5 229.0 433.8 229.4 437.1 229.9 440.4 230.4 443.8 231.1 447.2 231.9 447.8 227.9 448.3 224.0 448.8 220.2 449.4 216.6 449.9 213.0 450.4 209.5 450.9 206.1 451.3 202.8 451.8 199.6 452.3 196.4 452.7 193.3 453.2 190.3 453.7 187.3 454.1 184.3 454.6 181.4 455.0 178.5 455.5 175.6 455.9 172.7 456.4 169.8 456.9 166.9 457.3 164.0 457.8 161.1 458.3 158.2 458.8 155.2 459.3 152.1 459.8 149.1 460.3 145.9 460.8 142.7 461.4 139.5 462.0 136.1 462.5 132.7 463.1 129.1 463.8 125.5 464.4 121.7 465.1 117.8 465.8 113.8 463.5 112.9 461.1 112.0 458.6 111.2 456.0 110.3 453.3 109.5 450.4 108.8 447.4 108.1 444.2 107.5 441.0 107.0 437.6 106.5 434.0 106.2 430.3 105.9 428.2 105.9 426.0 105.8 423.9 105.8 421.9 105.9 419.9 106.0 417.9 106.2 415.9 106.4 414.0 106.8 412.2 107.1 410.3 107.6 408.5 108.1 406.7 108.7 405.0 109.4 403.3 110.1 401.6 111.0 399.9 111.9 398.3 112.9 396.6 114.0 395.1 115.2 393.5 116.6 391.9 118.0 390.4 119.5 388.9 121.1 387.5 122.8 386.0 124.6 384.6 126.6 383.2 128.6 381.9 130.8 380.5 133.0 379.2 135.4 377.9 137.9 376.7 140.5 375.4 143.2 374.2 146.1 373.1 149.0 371.9 152.1 370.8 155.3 369.7 158.7 368.6 162.2 367.5 165.8 366.5 169.5 365.4 173.4 364.4 177.5 363.4 181.7 362.4 186.1 361.4 190.6 360.4 195.4 359.4 200.3 358.3 205.5 357.2 210.8 356.1 216.4 354.9 222.2 353.7 228.3 352.4 234.6 351.1 241.2 349.8 247.9 348.4 254.9 347.0 262.1 345.5 270.3 344.0 278.3 342.7 285.9 341.5 293.4 340.4 300.5 339.5 307.3 338.7 313.9 337.9 320.2 337.3 326.3 336.8 332.2 336.4 337.8 336.1 343.2 335.8 348.5 335.6 353.5 335.5 358.4 335.4 363.1 335.4 367.6 335.4 372.0 335.5 376.3 335.6 380.4 335.7 384.4 335.9 388.2 336.1 391.9 336.3 395.5 336.6 399.0 336.9 402.3 337.3 405.6 337.7 408.6 338.2 411.6 338.7 414.5 339.2 417.2 339.8 419.8 340.5 422.2 341.2 424.6 341.9 426.8 342.8 428.9 343.6 430.9 344.6 432.8 345.6 434.6 346.6 436.2 347.7 437.7 348.9 439.2 350.1 440.5 351.4 441.7 352.7 442.8 354.1 443.8 355.6 444.7 357.1 445.5 358.6 446.3 360.2 446.9 361.9 447.5 363.6 448.0 365.3 448.4 367.1 448.8 369.0 449.0 370.9 449.3 372.8 449.4 374.8 449.6 376.9 449.6 378.9 449.6 381.0 449.6 383.1 449.6 385.3 449.5 389.6 449.2 393.7 448.8 397.5 448.4 401.0 447.9 404.4 447.3 407.5 446.7 410.5 446.0 413.4 445.3 416.1 444.6 418.7 443.8 421.2 443.1 421.6 440.2 421.9 437.2 422.3 434.2 422.6 431.1 423.0 428.1 423.3 424.9 423.7 421.8 424.1 418.6 424.5 415.3 424.9 412.1 425.2 408.8 425.6 405.5 426.0 402.1 426.4 398.7 426.8 395.3 427.2 391.9 427.6 388.4 428.1 385.0 428.5 381.5 428.9 378.0 429.3 374.5 429.8 370.9 430.2 367.4 430.6 363.9 431.1 360.3 431.5 356.7 431.9 353.1 432.4 349.6 432.8 346.0 433.3 342.4 433.7 338.8 434.2 335.2 434.6 331.6 435.1 328.1 435.5 324.5 435.9 321.0 436.4 317.4 436.8 313.9 437.3 310.4 437.7 306.9 438.1 303.4 438.6 299.9 439.0 296.5 439.4 293.1 439.9 289.7 440.3 286.3 440.7 282.9 441.1 279.6 441.5 276.3 441.9 273.1 442.3 269.9 442.7 266.7 443.1 263.5 443.5 260.4 443.9 257.4 444.2 254.3 444.6 251.4 444.9 248.4 445.3 245.5 445.6 242.7 442.8 242.9 440.0 243.1 437.0 243.3 434.0 243.4 430.9 243.6 427.8 243.6 424.6 243.6 421.3 243.5Z"/>
  </g>
</svg>
