<svg xmlns="http://www.w3.org/2000/svg" width="500" height="150">
  <g>
    <defs/>
    <path fill="rgba(255.0, 255.0, 255.0, 1.0)" stroke-width="0" stroke="rgba(0.0, 0.0, 0.0, 0.0)" d="M50.0 61.6Q52.9 61.1 55.6 60.4Q58.3 59.6 60.8 58.8Q60.3 67.2 59.7 77.1Q59.1 86.9 58.5 97.4Q57.8 107.9 57.3 117.8Q56.8 127.7 56.6 136.2Q54.5 137.1 52.4 138.1Q50.2 139.1 47.6 139.9Q45.0 140.7 41.6 141.3Q36.1 142.3 31.9 141.4Q27.7 140.5 24.8 136.6Q22.0 132.7 20.5 124.8Q19.0 117.0 18.9 104.2Q18.9 91.4 20.2 72.6Q21.5 53.5 23.7 41.5Q25.9 29.4 29.3 22.6Q32.8 15.8 37.8 12.7Q42.7 9.6 49.6 8.3Q54.6 7.5 58.6 7.4Q62.5 7.3 65.5 7.8Q64.7 14.8 64.1 20.4Q63.6 25.9 63.1 31.1Q62.6 36.2 62.1 41.8Q61.6 47.3 61.0 54.5Q57.9 54.7 55.0 54.9Q52.2 55.2 49.6 55.6Q46.1 56.2 44.5 57.0Q43.0 57.8 42.7 59.4Q42.9 61.2 44.4 61.7Q46.0 62.3 50.0 61.6Z"/>
  </g>
  <g>
    <defs/>
    <path fill="rgba(255.0, 255.0, 255.0, 1.0)" stroke-width="0" stroke="rgba(0.0, 0.0, 0.0, 0.0)" d="M127.5 68.4Q126.1 88.8 124.1 102.3Q122.1 115.8 118.9 124.0Q115.7 132.2 110.8 136.2Q105.9 140.2 98.8 141.4Q90.1 143.0 84.5 140.6Q78.9 138.2 76.1 130.6Q73.3 123.0 72.7 109.4Q72.1 95.7 73.5 75.0Q74.9 55.5 77.2 43.1Q79.5 30.6 82.9 23.4Q86.4 16.2 91.4 12.9Q96.3 9.7 102.7 8.5Q110.5 7.2 116.0 8.9Q121.5 10.6 124.5 17.0Q127.4 23.5 128.2 36.0Q129.0 48.4 127.5 68.4ZM98.6 99.9Q99.2 99.8 99.9 98.9Q100.5 98.0 100.9 95.2Q101.4 92.3 102.0 86.4Q102.6 80.5 103.2 70.6Q104.1 59.7 104.5 53.6Q104.9 47.5 104.6 44.6Q104.4 41.7 103.9 41.0Q103.4 40.3 102.3 40.5Q101.6 40.7 101.1 41.5Q100.7 42.4 100.3 45.4Q99.9 48.4 99.3 54.4Q98.7 60.5 97.9 71.3Q97.0 81.3 96.7 87.3Q96.4 93.2 96.4 96.0Q96.5 98.7 97.1 99.4Q97.7 100.0 98.6 99.9Z"/>
  </g>
  <g>
    <defs/>
    <path fill="rgba(255.0, 255.0, 255.0, 1.0)" stroke-width="0" stroke="rgba(0.0, 0.0, 0.0, 0.0)" d="M169.4 137.0 135.6 142.9Q135.9 137.9 136.7 127.7Q137.5 117.6 138.6 104.4Q139.6 91.3 140.4 77.4Q141.4 63.4 142.3 50.8Q143.2 38.2 143.8 28.2Q144.5 18.1 144.8 11.9L172.1 7.1Q171.7 11.6 170.9 21.8Q170.1 31.9 169.0 45.0Q167.9 58.0 166.9 71.7Q166.5 76.4 166.2 82.5Q165.9 88.6 165.5 94.9Q165.0 101.2 164.7 106.5Q164.5 111.8 164.1 114.6L161.4 97.2Q163.7 96.7 166.6 96.1Q169.5 95.4 172.4 94.9Q172.0 98.6 171.6 103.8Q171.2 109.0 170.8 114.1Q170.6 119.9 170.1 126.2Q169.7 132.4 169.4 137.0Z"/>
  </g>
  <g>
    <defs/>
    <path fill="rgba(255.0, 255.0, 255.0, 1.0)" stroke-width="0" stroke="rgba(0.0, 0.0, 0.0, 0.0)" d="M208.6 112.1 206.2 100.8Q207.5 100.9 208.5 100.7Q209.5 100.6 210.5 100.4Q211.5 100.2 212.3 99.3Q213.1 98.4 213.7 95.3Q214.4 92.3 215.1 86.0Q215.8 79.8 216.5 69.1Q217.4 58.1 217.6 51.9Q217.8 45.8 217.5 42.9Q217.3 40.0 216.6 39.3Q216.0 38.7 215.0 38.8Q214.0 39.0 212.8 39.3Q211.7 39.6 210.4 40.0L214.5 31.3Q213.7 39.2 212.8 49.0Q212.0 58.9 211.1 71.6Q210.1 85.6 209.5 94.9Q208.9 104.1 208.6 112.1ZM210.8 139.5 181.7 144.6Q182.9 130.6 184.0 115.3Q185.2 100.0 186.6 79.2Q188.1 58.4 189.0 42.9Q190.0 27.3 190.9 13.6L217.0 8.9Q223.8 7.7 229.1 9.0Q234.3 10.2 237.6 15.8Q240.9 21.5 242.0 33.4Q243.1 45.3 241.6 65.2Q240.0 87.8 237.7 101.8Q235.3 115.9 231.8 123.6Q228.4 131.2 223.2 134.7Q218.0 138.2 210.8 139.5Z"/>
  </g>
  <g>
    <defs/>
    <path fill="rgba(255.0, 255.0, 255.0, 1.0)" stroke-width="0" stroke="rgba(0.0, 0.0, 0.0, 0.0)" d="M262.4 42.1 289.5 37.3Q288.5 53.8 287.3 70.2Q286.1 86.6 285.3 100.8Q284.4 115.0 283.7 125.0Q282.9 135.0 282.7 138.7Q280.0 139.0 276.0 139.6Q271.9 140.2 268.8 140.8Q265.4 141.4 261.6 142.1Q257.7 142.9 254.9 143.6Q255.1 139.9 256.0 129.9Q257.0 119.9 258.0 105.6Q259.0 91.4 260.2 75.0Q261.3 58.5 262.4 42.1ZM257.7 13.6 298.2 6.4Q298.1 10.3 297.7 16.0Q297.3 21.6 296.7 27.3Q296.4 32.5 296.0 38.4Q295.6 44.4 295.3 48.7Q289.8 49.7 284.6 50.5Q279.4 51.4 275.2 52.1Q271.0 52.8 265.7 53.9Q260.4 54.9 254.8 55.9Q255.3 51.5 255.7 45.5Q256.1 39.6 256.4 34.4Q256.9 28.8 257.2 23.1Q257.5 17.4 257.7 13.6Z"/>
  </g>
  <g>
    <defs/>
    <path fill="rgba(255.0, 255.0, 255.0, 1.0)" stroke-width="0" stroke="rgba(0.0, 0.0, 0.0, 0.0)" d="M313.6 89.8 346.9 83.9Q346.0 97.4 345.3 108.6Q344.5 119.9 344.1 127.6Q343.8 135.4 343.6 138.4Q341.1 138.6 338.2 139.1Q335.4 139.6 332.3 140.2Q329.3 140.7 326.5 141.2Q323.6 141.7 320.6 142.2Q317.6 142.8 314.7 143.3Q311.8 143.8 309.3 144.4Q309.6 141.4 310.2 133.6Q310.8 125.8 311.8 114.5Q312.7 103.2 313.6 89.8ZM339.0 9.7 362.3 5.6Q361.5 9.9 360.1 17.9Q358.6 25.9 356.8 35.9Q354.9 45.9 353.0 56.3Q351.2 66.8 349.5 75.9Q347.8 85.0 346.6 91.5Q345.4 98.0 344.9 100.0Q341.4 100.3 337.0 101.0Q332.7 101.8 329.1 102.4Q325.8 103.0 322.6 103.6Q319.5 104.3 317.0 104.8Q314.6 105.3 313.1 105.6Q313.1 103.5 312.7 97.3Q312.3 91.0 311.9 82.2Q311.4 73.4 310.9 63.5Q310.4 53.6 309.9 44.1Q309.4 34.6 309.1 26.9Q308.8 19.2 308.6 15.1L333.5 10.7Q333.2 14.0 332.7 21.9Q332.2 29.9 331.8 40.4Q331.3 50.9 330.8 62.1Q330.7 66.2 330.6 71.9Q330.4 77.5 330.3 82.8Q330.2 88.1 330.1 91.2L328.6 83.7L333.1 82.9L330.4 91.1Q330.7 88.0 331.3 82.6Q331.9 77.2 332.7 71.5Q333.4 65.8 333.7 61.6Q335.1 50.3 336.2 39.6Q337.3 29.0 338.0 21.0Q338.8 13.0 339.0 9.7Z"/>
  </g>
  <g>
    <defs/>
    <path fill="rgba(255.0, 255.0, 255.0, 1.0)" stroke-width="0" stroke="rgba(0.0, 0.0, 0.0, 0.0)" d="M389.5 140.1 364.6 144.5Q365.3 135.0 366.0 125.2Q366.7 115.5 367.6 104.2Q368.4 92.9 369.2 78.9Q370.8 58.1 371.9 42.8Q372.9 27.5 373.7 13.4L396.9 9.3Q404.7 7.9 410.2 9.0Q415.6 10.0 418.6 15.0Q421.7 20.0 422.6 30.1Q423.5 40.2 422.3 57.0Q421.2 73.9 419.7 84.7Q418.2 95.5 415.5 101.6Q412.8 107.7 407.9 110.6Q403.0 113.5 394.9 115.0Q393.3 115.3 391.7 115.5Q390.1 115.8 388.5 115.9L390.8 83.9Q391.5 83.8 392.1 83.8Q392.7 83.8 393.0 83.7Q395.2 83.3 396.2 81.6Q397.2 79.9 397.8 75.5Q398.4 71.0 398.9 62.8Q399.8 51.3 399.6 46.1Q399.5 41.0 398.7 39.6Q397.8 38.3 396.1 38.6Q394.8 38.9 391.6 39.5Q388.3 40.2 386.7 40.8L395.8 27.8Q394.7 44.2 393.6 60.2Q392.6 76.2 391.6 91.0Q390.7 105.7 390.2 118.2Q389.8 130.7 389.5 140.1Z"/>
  </g>
  <g>
    <defs/>
    <path fill="rgba(255.0, 255.0, 255.0, 1.0)" stroke-width="0" stroke="rgba(0.0, 0.0, 0.0, 0.0)" d="M455.5 85.7 458.0 51.0Q462.5 50.2 468.1 49.1Q473.7 47.9 477.6 46.9Q477.2 51.3 476.7 57.8Q476.2 64.2 475.8 70.9Q475.4 77.7 474.9 82.6Q470.7 83.0 465.4 83.9Q460.1 84.8 455.5 85.7ZM471.9 136.8 429.5 144.3Q430.5 134.8 431.1 125.0Q431.8 115.2 432.7 103.9Q433.6 92.6 434.4 78.7Q435.9 57.9 436.9 42.6Q437.9 27.3 438.7 13.2L481.1 5.7Q480.7 9.6 480.3 15.0Q479.9 20.4 479.4 25.5Q479.2 31.3 479.0 35.0Q478.8 38.8 478.6 42.8Q473.2 43.5 467.4 44.5Q461.5 45.4 457.5 46.1L462.1 17.4Q461.1 31.7 460.2 45.4Q459.2 59.1 458.3 72.2Q457.1 87.3 456.1 101.3Q455.2 115.4 454.4 128.3L453.8 91.1Q456.4 90.7 459.9 90.0Q463.5 89.3 467.4 88.5Q471.4 87.7 474.9 87.1Q474.7 89.9 474.4 94.6Q474.1 99.3 473.9 104.4Q473.6 109.4 473.3 113.4Q472.8 119.4 472.5 125.8Q472.1 132.1 471.9 136.8Z"/>
  </g>
</svg>
